<?xml version="1.0" standalone="no"?>
<!DOCTYPE svg PUBLIC "-//W3C//DTD SVG 1.1//EN" "http://www.w3.org/Graphics/SVG/1.1/DTD/svg11.dtd" >
<svg xmlns="http://www.w3.org/2000/svg">
<metadata>Generated by IcoMoon</metadata>
<defs>
<font id="icomoon" horiz-adv-x="1024">
<font-face units-per-em="1024" ascent="960" descent="-64" />
<missing-glyph horiz-adv-x="1024" />
<glyph unicode="&#x20;" horiz-adv-x="512" d="" />
<glyph unicode="&#xe900;" glyph-name="add" horiz-adv-x="1054" d="M1053.636 374.844h-451.558v-438.937h-150.519v438.937h-451.558v146.219h451.558v438.937h150.519v-438.937h451.558z" />
<glyph unicode="&#xe901;" glyph-name="adduser" d="M1024 128v-64h-128v-128h-64v128h-128v64h128v128h64v-128zM520.021 487.026c33.687-12.889 62.803-28.888 89.307-48.249l-1.073 0.747c27.33-19.866 51.063-42.172 71.731-67.111l0.518-0.644c20.139-24.326 37.683-51.961 51.523-81.67l0.985-2.355c12.997-27.675 23.188-59.823 28.975-93.476l0.323-2.268h-64.796c-7.965 38.909-22.016 73.426-41.28 104.361l0.775-1.335c-19.456 31.442-42.957 58.203-70.207 80.562l-0.562 0.448c-26.692 21.845-57.669 39.783-91.288 52.291l-2.237 0.729c-31.889 12.001-68.748 18.948-107.228 18.948-0.523 0-1.045-0.001-1.567-0.004h0.081c-0.394 0.002-0.86 0.003-1.326 0.003-29.778 0-58.585-4.155-85.874-11.918l2.208 0.537c-29.114-8.197-54.522-19.2-78.028-33.082l1.512 0.826c-24.605-14.523-45.853-31.081-64.734-50l-0.005-0.005c-18.925-18.887-35.482-40.134-49.197-63.266l-0.809-1.474c-13.056-21.994-24.059-47.402-31.699-74.227l-0.557-2.289c-7.225-25.080-11.381-53.888-11.381-83.666 0-0.466 0.001-0.932 0.003-1.398v0.071h-64.114c-0.001 0.353-0.002 0.771-0.002 1.189 0 40.829 6.493 80.141 18.503 116.96l-0.752-2.665c12.591 39.033 29.653 72.973 51.062 103.654l-0.829-1.254c22.365 32.012 48.212 59.522 77.495 82.908l0.784 0.605c29.132 23.384 62.779 42.808 99.172 56.664l2.545 0.851c-36.553 23.703-66.273 54.933-87.545 91.665l-0.69 1.291c-19.979 34.865-31.76 76.641-31.76 121.168 0 1.002 0.006 2.002 0.018 3.002l-0.001-0.152c-0.004 0.52-0.006 1.135-0.006 1.751 0 35.389 7.326 69.067 20.544 99.601l-0.626-1.625c13.55 31.673 32.013 58.724 54.735 81.529l-0.008-0.008c22.874 22.739 50.023 41.207 80.131 54.090l1.675 0.637c28.98 12.661 62.748 20.028 98.237 20.028 0.463 0 0.926-0.001 1.389-0.004h-0.071c0.441 0.003 0.964 0.004 1.487 0.004 35.49 0 69.259-7.368 99.861-20.657l-1.622 0.627c31.673-13.55 58.724-32.013 81.529-54.735l-0.008 0.008c22.714-22.798 41.177-49.849 54.088-79.852l0.639-1.67c12.662-28.98 20.029-62.75 20.029-98.24 0-0.523-0.002-1.045-0.005-1.567v0.081c0-0.11 0-0.24 0-0.37 0-22.8-3.010-44.897-8.654-65.915l0.405 1.773c-5.963-22.623-14.076-42.411-24.389-60.799l0.666 1.293c-11.017-19.673-23.542-36.657-37.896-51.9l0.122 0.131c-14.665-15.593-31.155-29.206-49.198-40.579l-1.035-0.609zM192 704c-0.003-0.415-0.005-0.905-0.005-1.396 0-26.507 5.527-51.723 15.491-74.558l-0.468 1.202c10.278-23.687 24.181-43.916 41.245-60.985l-0.001 0.001c17.069-17.063 37.297-30.967 59.732-40.757l1.252-0.487c21.633-9.497 46.849-15.024 73.356-15.024 0.491 0 0.981 0.002 1.471 0.006h-0.075c0.318-0.002 0.693-0.003 1.069-0.003 26.541 0 51.791 5.526 74.662 15.49l-1.207-0.468c23.806 10.225 44.135 24.137 61.272 41.247l-0.002-0.002c17.063 17.069 30.967 37.297 40.757 59.732l0.487 1.252c9.497 21.633 15.024 46.849 15.024 73.356 0 0.491-0.002 0.981-0.006 1.471v-0.075c0.002 0.318 0.003 0.693 0.003 1.069 0 26.541-5.526 51.791-15.49 74.662l0.468-1.207c-10.225 23.806-24.137 44.135-41.247 61.272l0.002-0.002c-17.134 17.107-37.463 31.019-60.015 40.762l-1.254 0.482c-21.665 9.496-46.915 15.022-73.455 15.022-0.376 0-0.751-0.001-1.127-0.003h0.058c-0.415 0.003-0.905 0.005-1.396 0.005-26.507 0-51.723-5.527-74.558-15.491l1.202 0.468c-23.687-10.278-43.916-24.181-60.985-41.245l0.001 0.001c-17.107-17.134-31.019-37.463-40.762-60.015l-0.482-1.254c-9.496-21.665-15.022-46.915-15.022-73.455 0-0.376 0.001-0.751 0.003-1.127v0.058z" />
<glyph unicode="&#xe902;" glyph-name="delete" d="M857.718 49.743c-0.223-62.756-51.059-113.564-113.804-113.743h-455.067c-62.729 0.223-113.52 51.014-113.743 113.722v682.714h682.693zM118.154 903.129h199.129l56.871 56.871h284.436l56.871-56.871h199.129v-113.822h-796.436z" />
<glyph unicode="&#xe903;" glyph-name="calendar" d="M384 547.612h64v-64h-64zM576 163.612h64v-64h-64zM768 547.612h64v-64h-64zM576 547.612h64v-64h-64zM384 419.612h64v-64h-64zM192 419.612h64v-64h-64zM768 419.612h64v-64h-64zM576 419.612h64v-64h-64zM384 291.612h64v-64h-64zM192 291.612h64v-64h-64zM768 291.612h64v-64h-64zM576 291.612h64v-64h-64zM384 163.612h64v-64h-64zM192 163.612h64v-64h-64zM1024 867.612v-896h-1024v896h192v64h64v-64h512v64h64v-64zM64 803.612v-128h896v128h-128v-64h-64v64h-512v-64h-64v64zM960 35.612v576h-896v-576z" />
<glyph unicode="&#xe904;" glyph-name="phone" d="M803.533 353.587c0.329 0.004 0.717 0.006 1.106 0.006 14.797 0 28.917-2.898 41.824-8.157l-0.741 0.267c13.923-5.736 25.803-13.773 35.733-23.752l0.004-0.004 110.080-110.387c9.984-9.934 18.021-21.815 23.496-35.026l0.261-0.712c5.389-12.445 8.578-26.928 8.704-42.141v-0.048c0-0.062 0-0.135 0-0.209 0-15.176-3.048-29.64-8.566-42.814l0.272 0.731c-5.736-13.923-13.773-25.803-23.752-35.733l-0.004-0.004-7.475-6.861q-27.034-27.034-49.459-48.026c-13.824-13.042-29.22-24.69-45.798-34.562l-1.204-0.664c-15.687-9.17-33.838-16.622-53.044-21.407l-1.433-0.302c-19.983-4.779-42.927-7.52-66.51-7.52-1.818 0-3.632 0.016-5.442 0.049l0.272-0.004c-45.842 0.238-89.957 7.258-131.512 20.104l3.205-0.853c-50.663 15.246-94.334 33.617-135.558 55.933l3.769-1.866c-48.966 26.219-90.837 53.374-130.25 83.575l2.25-1.655c-43.271 33.191-81.698 67.203-117.619 103.69l-0.141 0.144c-35.892 36.297-69.45 75.116-100.306 116.085l-2.094 2.904c-28.598 37.176-55.755 79.050-79.479 123.048l-2.441 4.952c-19.837 36.951-37.729 80.127-51.316 125.169l-1.318 5.084c-11.762 37.625-18.698 80.914-19.045 125.771l-0.001 0.181c-0.027 1.514-0.043 3.299-0.043 5.088 0 23.387 2.665 46.151 7.707 68.006l-0.394-2.029c4.991 20.438 12.377 38.424 22.023 54.927l-0.519-0.962c10.475 17.705 22.056 33.034 35.144 46.928l-0.123-0.132q20.48 22.221 47.718 49.254l7.987 7.987c9.925 9.953 21.718 18.038 34.81 23.684l0.723 0.278c12.365 5.374 26.768 8.501 41.902 8.501 0.209 0 0.418-0.001 0.626-0.002h-0.032c0.080 0 0.174 0 0.268 0 15.175 0 29.62-3.126 42.726-8.769l-0.702 0.269c13.9-5.884 25.767-13.974 35.736-23.96l109.979-110.082c10.101-9.92 18.239-21.801 23.8-35.031l0.264-0.706c5.246-12.442 8.295-26.906 8.295-42.082 0-0.073 0-0.147 0-0.22v0.011c-0.023-14.198-3.074-27.678-8.542-39.836l0.248 0.617c-5.204-11.922-11.41-22.201-18.764-31.534l0.23 0.302c-7.428-9.414-15.383-17.758-24.047-25.308l-0.222-0.189q-13.21-11.469-24.269-22.528c-6.752-6.643-12.848-13.91-18.21-21.721l-0.324-0.5c-4.68-6.773-7.475-15.159-7.475-24.199 0-0.025 0-0.049 0-0.074v0.004c-0.002-0.173-0.004-0.378-0.004-0.583 0-12.507 5.179-23.805 13.509-31.866l275.468-275.468c8.073-8.342 19.37-13.521 31.878-13.521 0.205 0 0.41 0.001 0.614 0.004h-0.031c0.021 0 0.045 0 0.070 0 9.040 0 17.426 2.795 24.342 7.569l-0.144-0.094c8.311 5.686 15.578 11.783 22.201 18.515l0.019 0.020q10.957 10.957 22.528 24.269c7.74 8.886 16.084 16.841 25.108 23.972l0.389 0.297c9.166 6.968 19.624 13.017 30.806 17.676l0.938 0.346c11.334 4.986 24.547 7.889 38.438 7.889 0.311 0 0.621-0.001 0.931-0.004h-0.047zM761.958 0.102c1.471-0.034 3.204-0.053 4.942-0.053 19.664 0 38.748 2.484 56.955 7.157l-1.583-0.345c16.614 4.569 31.159 11.225 44.321 19.821l-0.596-0.365c14.278 9.558 26.718 20.014 37.919 31.669l0.072 0.075q18.534 19.046 42.496 43.008c8.342 8.073 13.521 19.37 13.521 31.878 0 0.205-0.001 0.41-0.004 0.614v-0.031c-0.686 8.040-3.461 15.319-7.772 21.437l0.092-0.138c-5.928 9.703-12.111 18.101-18.931 25.928l0.192-0.225q-11.469 13.517-25.702 27.75t-27.238 27.034l-25.498 23.45q-11.776 10.24-18.227 17.203c-8.153 8.348-19.521 13.525-32.099 13.525-0.307 0-0.614-0.003-0.92-0.009l0.046 0.001c-0.034 0-0.073 0-0.113 0-8.924 0-17.194-2.798-23.982-7.564l0.133 0.089c-8.306-5.646-15.569-11.641-22.234-18.24l0.013 0.013q-10.957-10.957-22.733-24.269c-7.837-8.831-16.243-16.782-25.293-23.956l-0.409-0.313c-9.031-7.124-19.31-13.331-30.323-18.178l-0.909-0.357c-11.076-4.737-23.964-7.49-37.494-7.49-0.606 0-1.212 0.006-1.815 0.017l0.091-0.001c-0.062 0-0.135 0-0.209 0-15.176 0-29.64 3.048-42.814 8.566l0.731-0.272c-13.923 5.736-25.803 13.773-35.733 23.752l-275.46 275.46c-9.984 9.934-18.021 21.815-23.496 35.026l-0.261 0.712c-5.246 12.442-8.295 26.906-8.295 42.082 0 0.073 0 0.147 0 0.22v-0.011c-0.010 0.513-0.015 1.118-0.015 1.725 0 13.531 2.754 26.419 7.732 38.133l-0.241-0.639c5.204 11.922 11.41 22.201 18.764 31.534l-0.23-0.302c7.486 9.46 15.438 17.866 24.066 25.526l0.203 0.177q12.902 11.674 24.064 22.938c6.709 6.609 12.801 13.806 18.205 21.52l0.329 0.496c4.678 6.654 7.475 14.925 7.475 23.848 0 0.040 0 0.080 0 0.119v-0.006c0.005 0.26 0.009 0.567 0.009 0.874 0 12.577-5.177 23.946-13.517 32.090l-0.009 0.009q-6.451 6.451-17.203 18.227l-23.757 25.702q-12.493 13.312-26.931 27.648t-27.75 25.702c-7.605 6.469-16.038 12.521-24.95 17.855l-0.855 0.474c-6.009 4.078-13.298 6.715-21.163 7.263l-0.137 0.008c-0.173 0.002-0.378 0.004-0.583 0.004-12.507 0-23.805-5.179-31.866-13.509l-0.012-0.012-42.701-42.496c-11.628-11.373-22.134-23.797-31.396-37.148l-0.553-0.842c-8.724-12.533-15.725-27.077-20.223-42.682l-0.257-1.042c-4.324-16.528-6.806-35.503-6.806-55.058 0-1.632 0.017-3.26 0.052-4.884l-0.004 0.242c0.556-41.336 7.408-80.878 19.634-117.978l-0.793 2.778c14.395-45.769 31.516-85.155 52.175-122.303l-1.691 3.314c24.653-44.849 49.914-83.183 77.846-119.347l-1.558 2.099c30.774-40.152 62.236-75.802 95.96-109.171l0.091-0.090c33.546-33.266 69.355-64.4 107.119-93.094l2.654-1.934c33.939-25.981 72.212-50.914 112.33-72.898l4.713-2.366c33.43-18.512 72.39-35.226 113.088-48.016l4.569-1.238c33.626-10.965 72.345-17.486 112.526-17.918l0.216-0.002z" />
<glyph unicode="&#xe905;" glyph-name="dropdown" d="M476.274 209.067l512 466.489h-988.274z" />
<glyph unicode="&#xe906;" glyph-name="checked" d="M11.605 405.248c-7.174 6.837-11.635 16.466-11.635 27.136s4.461 20.299 11.62 27.122l0.015 0.014 54.272 54.272c6.837 7.174 16.466 11.635 27.136 11.635s20.299-4.461 27.122-11.62l0.014-0.015 3.84-3.84 213.333-228.608c3.413-3.598 8.229-5.837 13.568-5.837s10.155 2.239 13.56 5.829l0.008 0.008 519.253 538.624h3.755c6.837 7.174 16.466 11.635 27.136 11.635s20.299-4.461 27.122-11.62l0.014-0.015 54.272-54.272c7.174-6.837 11.635-16.466 11.635-27.136s-4.461-20.299-11.62-27.122l-0.015-0.014-620.544-642.901c-6.837-7.174-16.466-11.635-27.136-11.635s-20.299 4.461-27.122 11.62l-0.014 0.015-301.824 325.547-7.765 11.179z" />
<glyph unicode="&#xe907;" glyph-name="checklist" d="M295.808 625.28h-69.824c-14.138 0-25.6-11.462-25.6-25.6s11.462-25.6 25.6-25.6h69.952c14.138 0 25.6 11.462 25.6 25.6s-11.462 25.6-25.6 25.6v0zM405.312 574.080h229.248c14.138 0 25.6 11.462 25.6 25.6s-11.462 25.6-25.6 25.6h-229.248c-14.138 0-25.6-11.462-25.6-25.6s11.462-25.6 25.6-25.6v0zM295.808 471.424h-69.824c-14.138 0-25.6-11.462-25.6-25.6s11.462-25.6 25.6-25.6h69.952c14.138 0 25.6 11.462 25.6 25.6s-11.462 25.6-25.6 25.6v0zM405.312 420.224h229.248c14.138 0 25.6 11.462 25.6 25.6s-11.462 25.6-25.6 25.6h-229.248c-14.138 0-25.6-11.462-25.6-25.6s11.462-25.6 25.6-25.6v0zM295.808 317.568h-69.824c-14.138 0-25.6-11.462-25.6-25.6s11.462-25.6 25.6-25.6h69.952c14.138 0 25.6 11.462 25.6 25.6s-11.462 25.6-25.6 25.6v0zM659.904 291.968c0 14.138-11.462 25.6-25.6 25.6v0h-228.992c-14.138 0-25.6-11.462-25.6-25.6s11.462-25.6 25.6-25.6h229.248c14.028 0.145 25.344 11.55 25.344 25.599 0 0 0 0.001 0 0.001v0zM860.288 363.072v507.264c0 14.138-11.462 25.6-25.6 25.6h-809.088c-14.138 0-25.6-11.462-25.6-25.6v0-848.96c0-14.138 11.462-25.6 25.6-25.6v0h809.216c0.123 0 0.269 0 0.415 0 101.868 0 184.448 82.58 184.448 184.448 0 92.985-68.806 169.9-158.282 182.606l-0.981 0.114zM51.2 46.848v797.888h758.4v-481.344c-90.288-13.082-158.876-89.948-158.876-182.834 0-52.573 21.972-100.014 57.234-133.641l0.073-0.069zM835.072 46.848c-73.732 0-133.504 59.772-133.504 133.504s59.772 133.504 133.504 133.504c73.732 0 133.504-59.772 133.504-133.504v0c0 0 0 0 0 0 0-73.732-59.772-133.504-133.504-133.504-0.090 0-0.18 0-0.27 0h0.014zM913.6 245.184c-3.768 2.305-8.328 3.669-13.207 3.669-9.172 0-17.218-4.824-21.739-12.073l-0.063-0.108-49.92-82.56-38.4 34.304c-4.66 4.809-11.178 7.794-18.393 7.794-14.138 0-25.6-11.462-25.6-25.6 0-8.413 4.059-15.879 10.325-20.545l0.068-0.048 61.504-54.336c4.458-3.864 10.317-6.219 16.725-6.219 9.088 0 17.071 4.736 21.613 11.875l0.062 0.104 65.92 108.8c2.224 3.717 3.539 8.199 3.539 12.988 0 9.277-4.935 17.401-12.322 21.892l-0.113 0.064z" />
<glyph unicode="&#xe908;" glyph-name="arrow-down" d="M106.775 707.91l-40.867-40.867 456.797-456.89 456.797 456.797-40.867 40.867-415.93-415.837z" />
<glyph unicode="&#xe909;" glyph-name="clear" d="M643.451 922.833c55.727-15.169 104.494-38.364 147.929-68.674l-1.535 1.015c44.201-30.66 81.956-66.655 113.512-107.667l0.872-1.18c30.571-39.802 55.759-85.833 73.267-135.487l1.067-3.474c16.778-46.951 26.475-101.114 26.475-157.542 0-0.614-0.001-1.228-0.003-1.842v0.095c0.001-0.435 0.002-0.951 0.002-1.466 0-46.101-6.426-90.7-18.431-132.952l0.831 3.422c-12.573-44.872-29.499-84.044-50.876-120.275l1.269 2.326c-22.314-38.006-47.786-70.819-76.918-99.976l0.004 0.004c-29.154-29.157-61.966-54.654-97.691-75.744l-2.282-1.246c-33.906-20.108-73.077-37.034-114.436-48.756l-3.514-0.851c-38.75-11.126-83.257-17.525-129.259-17.525-0.611 0-1.222 0.001-1.832 0.003h0.095c-0.435-0.001-0.951-0.002-1.466-0.002-46.101 0-90.7 6.426-132.952 18.431l3.422-0.831c-44.871 12.547-84.044 29.449-120.28 50.801l2.331-1.27c-38.006 22.335-70.819 47.833-99.972 76.989v0c-29.157 29.154-54.654 61.966-75.744 97.691l-1.246 2.282c-20.052 33.838-36.949 72.931-48.676 114.2l-0.856 3.522c-11.174 38.806-17.601 83.378-17.601 129.451 0 0.623 0.001 1.246 0.004 1.869v-0.097c-0.001 0.295-0.001 0.645-0.001 0.994 0 46.279 6.509 91.037 18.663 133.41l-0.836-3.408c12.784 45.392 29.992 85.013 51.717 121.638l-1.276-2.323c23.16 39.001 49.816 72.633 80.359 102.284l0.12 0.116c30.837 30.053 65.72 56.185 103.696 77.45l2.497 1.284h-131.679v61.592h246.519v-246.519h-61.592v142.981c-38.952-18.75-72.482-41.343-102.28-68.021l0.411 0.361c-29.682-26.537-55.383-56.604-76.709-89.752l-1.039-1.725c-20.308-31.508-37.204-67.852-48.82-106.482l-0.787-3.048c-10.976-35.922-17.295-77.21-17.295-119.974 0-0.302 0-0.604 0.001-0.905v0.047c-0.003-0.628-0.005-1.371-0.005-2.115 0-39.952 5.541-78.611 15.895-115.248l-0.719 2.979c11.078-39.187 26.006-73.39 44.858-104.981l-1.091 1.974c19.701-33.192 42.097-61.865 67.653-87.375l0.007-0.007c25.516-25.563 54.189-47.959 85.389-66.559l1.993-1.1c29.549-17.654 63.677-32.505 99.73-42.795l3.049-0.744c33.626-9.636 72.248-15.177 112.163-15.177 0.861 0 1.722 0.003 2.582 0.008l-0.133-0.001c0.628-0.003 1.371-0.005 2.115-0.005 39.952 0 78.611 5.541 115.248 15.895l-2.979-0.719c39.182 11.001 73.391 25.856 104.996 44.633l-1.989-1.094c33.192 19.701 61.865 42.097 87.375 67.653l0.007 0.007c25.563 25.516 47.959 54.189 66.559 85.389l1.1 1.993c17.654 29.549 32.505 63.677 42.795 99.73l0.744 3.049c9.636 33.626 15.177 72.248 15.177 112.163 0 0.861-0.003 1.722-0.008 2.582l0.001-0.133c0.001 0.326 0.001 0.713 0.001 1.1 0 49.446-8.559 96.894-24.276 140.941l0.912-2.929c-16.331 46.572-38.431 86.922-65.998 122.857l0.765-1.038c-28.32 36.848-61.265 68.298-98.386 94.171l-1.435 0.947c-36.593 25.615-79.149 45.983-124.871 58.766l-2.94 0.702z" />
<glyph unicode="&#xe90a;" glyph-name="close" d="M602.591 447.945l402.711 402.821c13.083 11.78 21.272 28.774 21.272 47.682 0 35.388-28.687 64.075-64.075 64.075-18.935 0-35.951-8.213-47.681-21.271l-0.052-0.059-402.711-402.711-402.711 402.711c-11.295 10.172-26.323 16.394-42.803 16.394-35.388 0-64.075-28.687-64.075-64.075 0-16.453 6.201-31.458 16.394-42.804l-0.052 0.059 402.711-402.821-402.711-402.711c-12.749-11.749-20.707-28.529-20.707-47.168 0-35.388 28.687-64.075 64.075-64.075 18.639 0 35.419 7.958 47.128 20.663l0.040 0.044 402.711 402.711 402.711-402.711c11.371-10.481 26.619-16.907 43.368-16.907 35.388 0 64.075 28.687 64.075 64.075 0 16.749-6.426 31.997-16.947 43.412l0.040-0.044z" />
<glyph unicode="&#xe90b;" glyph-name="copy" horiz-adv-x="896" d="M896 767.943v-832h-704v192h-192v832h704v-192zM64 191.943h576v704h-576zM832 703.943h-128v-576h-448v-128h576z" />
<glyph unicode="&#xe90c;" glyph-name="home-dashboard" d="M896 583.111h64v-576h-64zM256 359.083l64 64v-415.972h-64zM128 231.083l64 64v-287.972h-64zM384 487.083l64 64v-543.972h-64zM512 551.083l64-64v-479.46h-64zM672.028 391.111l32.028 31.972v-415.972h-64.057v415.972zM768 487.083l64 64v-543.972h-64zM0 103.083l64 64v-159.972h-64zM1024 903.111v-256h-64v146.489l-287.972-287.516-192 192-480.028-480.484v91.022l480.028 479.516 192-192 242.517 242.972h-146.546v64z" />
<glyph unicode="&#xe90d;" glyph-name="emptyfile" d="M941.714 685.495v-749.495h-832v1024h557.714zM685.714 704h146.286l-146.286 146.286zM877.714 0v640h-256v256h-448v-896z" />
<glyph unicode="&#xe90e;" glyph-name="feedback" d="M752.963 852.211h-694.649c-32.194-0.031-58.283-26.12-58.314-58.311v-416.771c0.031-32.194 26.12-58.283 58.311-58.314h45.059v-155.163c0-0.022 0-0.048 0-0.074 0-13.484 10.931-24.414 24.414-24.414 6.76 0 12.879 2.748 17.3 7.187l172.464 172.464h34.6c13.499 0 24.441 10.943 24.441 24.441s-10.943 24.441-24.441 24.441h-46.349c-6.134-0.403-11.589-3.024-15.63-7.060v0l-137.971-137.971s0 122.125 0 122.772c-1.143 12.519-11.587 22.252-24.306 22.259h-69.579c-5.197 0.030-9.401 4.235-9.432 9.429v416.771c0.030 5.197 4.235 9.401 9.429 9.432h694.652c5.197-0.030 9.401-4.235 9.432-9.429v-159.909c0-13.499 10.943-24.441 24.441-24.441s24.441 10.943 24.441 24.441v0 159.906c-0.031 32.194-26.12 58.283-58.311 58.314h-0.003zM977.219 553.418h-486.508c-32.194-0.031-58.283-26.12-58.314-58.311v-284.298c0.031-32.194 26.12-58.283 58.311-58.314h304.4l123.311-123.311c4.422-4.44 10.54-7.188 17.3-7.188 13.484 0 24.414 10.931 24.414 24.414 0 0.026 0 0.052 0 0.078v-0.004 106.065h16.761c32.194 0.031 58.283 26.12 58.314 58.311v284.298c-0.060 32.057-25.955 58.047-57.97 58.26h-0.020zM986.651 210.809c-0.030-5.197-4.235-9.401-9.429-9.432h-41.232c-12.805-0.019-23.298-9.893-24.301-22.442l-0.006-0.086c0-0.539 0-73.405 0-73.405l-89.95 89.896c-4.264 3.781-9.909 6.090-16.093 6.090-0.027 0-0.053 0-0.080 0h-314.849c-5.197 0.030-9.401 4.235-9.432 9.429v284.298c0.091 5.15 4.272 9.294 9.429 9.324h486.241c5.197-0.030 9.401-4.235 9.432-9.429v-0.003zM734.1 377.398c-13.484 0-24.414-10.931-24.414-24.414s10.931-24.414 24.414-24.414c13.484 0 24.414 10.931 24.414 24.414v0c0 13.484-10.931 24.414-24.414 24.414v0zM627.928 690.688h-444.578c-13.484 0-24.414-10.931-24.414-24.414s10.931-24.414 24.414-24.414v0h444.578c13.484 0 24.414 10.931 24.414 24.414s-10.931 24.414-24.414 24.414v0zM352.094 529.219h-168.744c-13.484 0-24.414-10.931-24.414-24.414s10.931-24.414 24.414-24.414v0h168.744c13.484 0 24.414 10.931 24.414 24.414s-10.931 24.414-24.414 24.414v0zM620.544 377.398c-13.484 0-24.414-10.931-24.414-24.414s10.931-24.414 24.414-24.414c13.484 0 24.414 10.931 24.414 24.414v0c0 13.484-10.931 24.414-24.414 24.414v0zM847.602 377.398c-13.484 0-24.414-10.931-24.414-24.414s10.931-24.414 24.414-24.414c13.484 0 24.414 10.931 24.414 24.414v0c0 13.484-10.931 24.414-24.414 24.414v0z" />
<glyph unicode="&#xe90f;" glyph-name="filechecks" d="M941.714 685.495v-749.495h-832v1024h557.714zM685.714 704h146.286l-146.286 146.286zM877.714 640h-256v256h-448v-896h704zM621.714 512h192v-192h-192zM685.714 384h64v64h-64zM237.714 448h320v-64h-320zM237.714 704h320v-64h-320zM621.714 256h192v-192h-192zM685.714 128h64v64h-64zM237.714 192h320v-64h-320z" />
<glyph unicode="&#xe910;" glyph-name="fileInfo" d="M0 881.152h1024v-896h-1024zM960.039 817.113h-896v-127.921h896zM64.039 49.191h896v575.961h-896zM704.039 369.152v192.039h192.039v-192.039zM768 497.152v-63.961h64.039v63.961zM704.039 113.152v192.039h192.039v-192.039zM768 241.152v-64.039h64.039v63.961zM192.039 433.191v63.961h384v-63.961zM192.039 177.191v63.961h384v-64.039z" />
<glyph unicode="&#xe911;" glyph-name="filter" d="M964.923 861.46v-101.061l-354.462-354.462v-371.554h-236.308v371.554l-354.462 354.462v101.061zM905.846 802.383h-827.077v-17.093l354.462-354.462v-337.369h118.154v337.369l354.462 354.462z" />
<glyph unicode="&#xe912;" glyph-name="formcancel" d="M512 917.333c0.092 0 0.201 0 0.309 0 44.184 0 86.912-6.232 127.353-17.866l-3.246 0.799c42.622-12.004 79.829-28.19 114.205-48.637l-2.163 1.191c36.145-21.411 67.367-45.762 95.144-73.555l0.002-0.002c27.795-27.78 52.146-59.002 72.359-92.973l1.198-2.174c19.113-32.114 35.184-69.21 46.301-108.39l0.803-3.312c10.834-37.196 17.067-79.923 17.067-124.107 0-0.109 0-0.218 0-0.327v0.018c0-0.092 0-0.201 0-0.309 0-44.184-6.232-86.912-17.866-127.353l0.799 3.246c-12.004-42.622-28.19-79.829-48.637-114.205l1.191 2.163c-21.411-36.145-45.762-67.367-73.555-95.144l-0.002-0.002c-27.78-27.795-59.002-52.146-92.973-72.359l-2.174-1.198c-32.114-19.113-69.21-35.184-108.39-46.301l-3.312-0.803c-37.196-10.834-79.923-17.067-124.107-17.067-0.109 0-0.218 0-0.327 0h0.018c-0.092 0-0.201 0-0.309 0-44.184 0-86.912 6.232-127.353 17.866l3.246-0.799c-42.615 11.889-79.829 27.964-114.227 48.299l2.184-1.195c-36.145 21.411-67.367 45.762-95.144 73.555l-0.002 0.002c-27.795 27.78-52.146 59.002-72.359 92.973l-1.198 2.174c-19.14 32.213-35.215 69.427-46.306 108.732l-0.798 3.311c-10.834 37.196-17.067 79.923-17.067 124.107 0 0.109 0 0.218 0 0.327v-0.018c0 0.092 0 0.201 0 0.309 0 44.184 6.232 86.912 17.866 127.353l-0.799-3.246c11.889 42.615 27.964 79.829 48.299 114.227l-1.195-2.184c21.411 36.145 45.762 67.367 73.555 95.144l0.002 0.002c27.78 27.795 59.002 52.146 92.973 72.359l2.174 1.198c32.213 19.14 69.427 35.215 108.732 46.306l3.311 0.798c37.196 10.834 79.923 17.067 124.107 17.067 0.109 0 0.218 0 0.327 0h-0.018zM512 37.291c0.521-0.002 1.138-0.004 1.755-0.004 50.983 0 99.773 9.391 144.734 26.538l-2.788-0.934c48.252 18.391 89.81 43.651 125.844 75.084l-0.489-0.418-579.328 579.499c-31.047-35.542-56.335-77.099-73.8-122.536l-0.952-2.818c-16.213-42.173-25.604-90.963-25.604-141.946 0-0.617 0.001-1.234 0.004-1.851v0.096c-0.002-0.496-0.003-1.083-0.003-1.671 0-38.308 5.329-75.372 15.286-110.49l-0.691 2.849c10.482-37.297 24.631-69.858 42.513-99.94l-1.041 1.892c18.765-31.438 40.088-58.599 64.404-82.75l0.023-0.023c24.22-24.245 51.437-45.487 81.050-63.126l1.894-1.045c28.19-16.841 60.751-30.99 95.152-40.768l2.896-0.704c32.627-9.48 70.105-14.933 108.857-14.933 0.1 0 0.199 0 0.299 0h-0.015zM822.272 178.944c31.015 35.544 56.275 77.102 73.715 122.535l0.951 2.82c16.213 42.173 25.604 90.963 25.604 141.946 0 0.617-0.001 1.234-0.004 1.851v-0.096c0.001 0.406 0.002 0.886 0.002 1.366 0 38.419-5.36 75.587-15.373 110.795l0.693-2.85c-10.424 37.293-24.518 69.858-42.345 99.951l1.043-1.903c-18.765 31.438-40.088 58.599-64.404 82.75l-0.023 0.023c-24.22 24.245-51.437 45.487-81.050 63.126l-1.894 1.045c-28.19 16.841-60.751 30.99-95.152 40.768l-2.896 0.704c-32.537 9.427-69.912 14.848-108.553 14.848-0.207 0-0.414 0-0.621 0h0.032c-0.521 0.002-1.138 0.004-1.755 0.004-50.983 0-99.773-9.391-144.734-26.538l2.788 0.934c-48.252-18.391-89.81-43.651-125.844-75.084l0.489 0.418z" />
<glyph unicode="&#xe913;" glyph-name="caretdown" horiz-adv-x="2048" d="M0 960l1024-1024 1024 1024z" />
<glyph unicode="&#xe914;" glyph-name="formminus" d="M512 960.091c0.63 0.003 1.376 0.004 2.122 0.004 47.645 0 93.737-6.648 137.398-19.068l-3.533 0.859c46.575-13.102 87.23-30.74 124.814-53.011l-2.389 1.311c39.32-23.275 73.282-49.763 103.487-80.004l0.005-0.005c30.246-30.21 56.734-64.172 78.709-101.131l1.3-2.361c20.961-35.195 38.599-75.85 50.816-118.787l0.885-3.638c11.56-40.128 18.209-86.22 18.209-133.865 0-0.746-0.002-1.491-0.005-2.236v0.114c0.003-0.63 0.004-1.376 0.004-2.122 0-47.645-6.648-93.737-19.068-137.398l0.859 3.533c-13.102-46.575-30.74-87.23-53.011-124.814l1.311 2.389c-23.297-39.357-49.815-73.349-80.092-103.576l-0.007-0.007c-30.21-30.246-64.172-56.734-101.131-78.709l-2.361-1.3c-35.195-20.961-75.85-38.599-118.787-50.816l-3.638-0.885c-40.128-11.56-86.22-18.209-133.865-18.209-0.746 0-1.491 0.002-2.236 0.005h0.114c-0.63-0.003-1.376-0.004-2.122-0.004-47.645 0-93.737 6.648-137.398 19.068l3.533-0.859c-46.575 13.102-87.23 30.74-124.814 53.011l2.389-1.311c-39.284 23.28-73.215 49.766-103.393 80.001l-0.008 0.008c-30.207 30.186-56.664 64.118-78.618 101.040l-1.3 2.361c-21.018 35.115-38.739 75.667-51.074 118.5l-0.9 3.651c-11.562 40.109-18.212 86.179-18.212 133.802 0 0.961 0.003 1.921 0.008 2.88l-0.001-0.148c-0.002 0.55-0.003 1.201-0.003 1.853 0 47.643 6.648 93.734 19.067 137.395l-0.859-3.534c13.194 46.581 30.92 87.229 53.281 124.796l-1.307-2.371c23.275 39.32 49.763 73.282 80.004 103.487l0.005 0.005c30.21 30.246 64.172 56.734 101.131 78.709l2.361 1.3c35.088 20.98 75.61 38.671 118.41 50.984l3.651 0.899c40.108 11.561 86.176 18.211 133.797 18.211 0.866 0 1.732-0.002 2.597-0.007l-0.134 0.001zM819.2 482.224h-614.4v-68.267h614.4z" />
<glyph unicode="&#xe915;" d="M512 960c0.63 0.003 1.376 0.004 2.122 0.004 47.645 0 93.737-6.648 137.398-19.068l-3.533 0.859c46.575-13.102 87.23-30.74 124.814-53.011l-2.389 1.311c39.32-23.275 73.282-49.763 103.487-80.004l0.005-0.005c30.246-30.21 56.734-64.172 78.709-101.131l1.3-2.361c20.961-35.195 38.599-75.85 50.816-118.787l0.885-3.638c11.56-40.128 18.209-86.22 18.209-133.865 0-0.746-0.002-1.491-0.005-2.236v0.114c0.003-0.63 0.004-1.376 0.004-2.122 0-47.645-6.648-93.737-19.068-137.398l0.859 3.533c-13.102-46.575-30.74-87.23-53.011-124.814l1.311 2.389c-23.297-39.357-49.815-73.349-80.092-103.576l-0.007-0.007c-30.21-30.246-64.172-56.734-101.131-78.709l-2.361-1.3c-35.195-20.961-75.85-38.599-118.787-50.816l-3.638-0.885c-40.128-11.56-86.22-18.209-133.865-18.209-0.746 0-1.491 0.002-2.236 0.005h0.114c-0.63-0.003-1.376-0.004-2.122-0.004-47.645 0-93.737 6.648-137.398 19.068l3.533-0.859c-46.575 13.102-87.23 30.74-124.814 53.011l2.389-1.311c-39.284 23.28-73.215 49.766-103.393 80.001l-0.008 0.008c-30.207 30.186-56.664 64.118-78.618 101.040l-1.3 2.361c-21.018 35.115-38.739 75.667-51.074 118.5l-0.9 3.651c-11.562 40.109-18.212 86.179-18.212 133.802 0 0.961 0.003 1.921 0.008 2.88l-0.001-0.148c-0.002 0.55-0.003 1.201-0.003 1.853 0 47.643 6.648 93.734 19.067 137.395l-0.859-3.534c13.194 46.581 30.92 87.229 53.281 124.796l-1.307-2.371c23.275 39.32 49.763 73.282 80.004 103.487l0.005 0.005c30.21 30.246 64.172 56.734 101.131 78.709l2.361 1.3c35.088 20.98 75.61 38.671 118.41 50.984l3.651 0.899c40.108 11.561 86.176 18.211 133.797 18.211 0.866 0 1.732-0.002 2.597-0.007l-0.134 0.001zM819.2 482.133h-614.4v-68.267h614.4z" />
<glyph unicode="&#xe916;" d="M502.514 163.443v564.338h18.133v-564.338h-18.133z" />
<glyph unicode="&#xe917;" glyph-name="pptdoc" horiz-adv-x="1010" d="M976.667 818.499c4.108-0.132 7.899-1.381 11.111-3.451l-0.086 0.052c4.091-2.421 7.626-5.165 10.78-8.293l-0.004 0.004c3.125-3.15 5.868-6.685 8.152-10.526l0.138-0.25c2.018-3.126 3.266-6.917 3.398-10.99l0.001-0.035v-673.521c-0.132-4.108-1.381-7.899-3.451-11.111l0.052 0.086c-2.421-4.091-5.165-7.626-8.293-10.78l0.004 0.004c-3.15-3.125-6.685-5.868-10.526-8.152l-0.25-0.138c-3.126-2.018-6.917-3.266-10.99-3.398l-0.035-0.001h-336.802v100.634h269.408v33.655h-269.408v67.311h269.408v33.655h-269.408v120.032c9.285-5.547 20.007-10.287 31.316-13.666l1.013-0.26c10.426-3.157 22.409-4.974 34.816-4.974 0.058 0 0.116 0 0.174 0h-0.009c0.273-0.002 0.595-0.003 0.917-0.003 18.598 0 36.292 3.874 52.317 10.859l-0.845-0.328c16.649 7.194 30.866 16.949 42.858 28.931l-0.001-0.001c11.981 11.991 21.736 26.208 28.59 41.978l0.34 0.879c6.657 15.181 10.531 32.874 10.531 51.472 0 0.323-0.001 0.645-0.003 0.967v-0.050h-134.621v134.704c-0.049 0-0.107 0-0.165 0-12.407 0-24.39-1.817-35.696-5.2l0.88 0.226c-12.322-3.64-23.044-8.379-32.989-14.289l0.66 0.363v153.687zM875.618 582.746c0.002 0.273 0.003 0.595 0.003 0.917 0 18.598-3.874 36.292-10.859 52.317l0.328-0.845c-7.194 16.649-16.949 30.866-28.931 42.858l0.001-0.001c-11.991 11.981-26.208 21.736-41.978 28.59l-0.879 0.34c-15.181 6.657-32.874 10.531-51.472 10.531-0.323 0-0.645-0.001-0.967-0.003h0.050v-134.704zM345.091 523.31c0.097-1.393 0.153-3.018 0.153-4.656 0-17.508-6.326-33.539-16.817-45.931l0.086 0.104c-11.656-10.861-27.345-17.527-44.592-17.527-1.811 0-3.605 0.074-5.378 0.218l0.233-0.015h-31.997v127.244q8.953 1.078 18.403 2.653c5.704 1.002 12.271 1.575 18.972 1.575 0.004 0 0.007 0 0.011 0h-0.001c1.536 0.142 3.323 0.223 5.128 0.223 16.045 0 30.593-6.412 41.221-16.813l-0.010 0.010c9.237-11.577 14.821-26.423 14.821-42.573 0-1.587-0.054-3.162-0.16-4.723l0.012 0.211zM0 820.074l606.21 139.926v-1023.917l-606.21 139.926zM168.442 243.871l78.419-8.953v145.729l38.961 2.653q8.289 0.497 15.75 0.497c5.855 0.010 11.609 0.402 17.249 1.15l-0.67-0.073c18.593 2.278 35.421 8.15 50.35 16.911l-0.613-0.332c14.549 8.576 26.852 19.268 36.935 31.82l0.202 0.261c9.875 12.437 17.828 26.946 23.087 42.688l0.289 0.998c5.255 15.224 8.29 32.767 8.29 51.020 0 0.103 0 0.205 0 0.308v-0.016c0.161 2.535 0.252 5.497 0.252 8.481 0 33.859-11.782 64.967-31.47 89.447l0.215-0.277c-21.847 21.874-52.042 35.405-85.398 35.405-3.554 0-7.072-0.154-10.548-0.455l0.452 0.032q-35.23 0-70.792-2.653t-70.792-4.725z" />
<glyph unicode="&#xe918;" d="M543.403 750.537v-609.849h-63.645v609.849h63.645z" />
<glyph unicode="&#xe919;" glyph-name="chat" horiz-adv-x="1277" d="M928.74 960h-856.812c-39.709-0.038-71.889-32.218-71.927-71.924v-514.065c0.038-39.709 32.218-71.889 71.924-71.927h55.578v-191.385c0-0.027 0-0.059 0-0.091 0-16.631 13.482-30.114 30.114-30.114 8.338 0 15.885 3.389 21.338 8.865l212.725 212.725h42.678c16.65 0 30.147 13.497 30.147 30.147s-13.497 30.147-30.147 30.147h-57.17c-7.566-0.497-14.294-3.73-19.278-8.709v0l-170.179-170.179s0 150.635 0 151.433c-1.41 15.442-14.292 27.446-29.98 27.455h-85.822c-6.41 0.037-11.596 5.224-11.633 11.63v514.065c0.037 6.41 5.224 11.596 11.63 11.633h856.816c6.41-0.037 11.596-5.224 11.633-11.63v-197.239c0-16.65 13.497-30.147 30.147-30.147s30.147 13.497 30.147 30.147v0 197.235c-0.038 39.709-32.218 71.889-71.924 71.927h-0.004zM1205.347 591.456h-600.081c-39.709-0.038-71.889-32.218-71.927-71.924v-350.666c0.038-39.709 32.218-71.889 71.924-71.927h375.461l152.098-152.098c5.454-5.477 13.001-8.866 21.339-8.866 16.631 0 30.114 13.482 30.114 30.114 0 0.032 0 0.064 0 0.096v-0.005 130.825h20.674c39.709 0.038 71.889 32.218 71.927 71.924v350.666c-0.075 39.541-32.014 71.597-71.503 71.861h-0.025zM1216.981 168.866c-0.037-6.41-5.224-11.596-11.63-11.633h-50.858c-15.794-0.023-28.737-12.202-29.974-27.681l-0.007-0.106c0-0.665 0-90.541 0-90.541l-110.949 110.882c-5.26 4.664-12.222 7.512-19.849 7.512-0.033 0-0.066 0-0.099 0h-388.349c-6.41 0.037-11.596 5.224-11.633 11.63v350.666c0.112 6.353 5.27 11.464 11.63 11.5h599.752c6.41-0.037 11.596-5.224 11.633-11.63v-0.004zM905.473 374.344c-16.631 0-30.114-13.482-30.114-30.114s13.482-30.114 30.114-30.114c16.631 0 30.114 13.482 30.114 30.114v0c0 16.631-13.482 30.114-30.114 30.114v0zM774.515 760.771h-548.363c-16.631 0-30.114-13.482-30.114-30.114s13.482-30.114 30.114-30.114v0h548.363c16.631 0 30.114 13.482 30.114 30.114s-13.482 30.114-30.114 30.114v0zM434.289 561.608h-208.137c-16.631 0-30.114-13.482-30.114-30.114s13.482-30.114 30.114-30.114v0h208.137c16.631 0 30.114 13.482 30.114 30.114s-13.482 30.114-30.114 30.114v0zM765.407 374.344c-16.631 0-30.114-13.482-30.114-30.114s13.482-30.114 30.114-30.114c16.631 0 30.114 13.482 30.114 30.114v0c0 16.631-13.482 30.114-30.114 30.114v0zM1045.472 374.344c-16.631 0-30.114-13.482-30.114-30.114s13.482-30.114 30.114-30.114c16.631 0 30.114 13.482 30.114 30.114v0c0 16.631-13.482 30.114-30.114 30.114v0z" />
<glyph unicode="&#xe91a;" glyph-name="home" d="M498.944 671.68l-355.968-293.44c0.033-0.278 0.051-0.601 0.051-0.928s-0.019-0.65-0.055-0.967l0.004 0.039c-0.032-0.278-0.051-0.601-0.051-0.928s0.018-0.65 0.054-0.967l-0.004 0.039v-297.152c0.319-21.75 17.866-39.297 39.586-39.616h237.726v237.696h158.464v-237.696h237.696c21.736 0.354 39.262 17.88 39.616 39.582v297.186c0.006 0.123 0.010 0.267 0.010 0.412 0 1.19-0.239 2.324-0.671 3.357l0.021-0.057zM991.104 445.12l-135.552 112.64v252.544c0.006 0.175 0.009 0.381 0.009 0.587 0 10.604-8.596 19.2-19.2 19.2-0.228 0-0.456-0.004-0.682-0.012l0.033 0.001h-118.912c-0.193 0.007-0.421 0.011-0.649 0.011-10.604 0-19.2-8.596-19.2-19.2 0-0.206 0.003-0.412 0.010-0.617l-0.001 0.030v-120.704l-151.040 126.272c-12.853 10.036-29.239 16.092-47.040 16.092s-34.187-6.056-47.211-16.22l0.171 0.128-444.992-370.752c-3.987-3.156-6.592-7.906-6.846-13.271l-0.002-0.041c-0.060-0.583-0.094-1.259-0.094-1.943 0-4.784 1.677-9.177 4.476-12.622l-0.029 0.037 38.4-45.824c3.248-3.594 7.685-6.059 12.688-6.771l0.112-0.013c0.394-0.024 0.855-0.038 1.32-0.038 5.084 0 9.783 1.646 13.593 4.435l-0.065-0.045 428.8 357.12 428.352-357.184c3.274-2.678 7.503-4.3 12.11-4.3 0.243 0 0.485 0.005 0.725 0.013l-0.035-0.001h1.856c5.115 0.725 9.552 3.19 12.784 6.766l0.016 0.018 38.4 45.824c2.738 3.397 4.395 7.766 4.395 12.521 0 0.729-0.039 1.45-0.115 2.159l0.008-0.088c-0.217 5.343-2.724 10.060-6.561 13.223l-0.031 0.025z" />
<glyph unicode="&#xe91b;" glyph-name="knowledgebase" d="M631.161 233.068c96.233 39.959 162.677 133.182 162.677 241.925 0 1.216-0.008 2.43-0.025 3.641l0.002-0.184c-9.036 150.082-132.959 268.375-284.51 268.375s-275.474-118.293-284.472-267.583l-0.038-0.792c-0.017-1.103-0.026-2.406-0.026-3.71 0-108.676 66.459-201.83 160.952-241.037l1.729-0.636 2.156-1.186 15.198-24.684c-16.839-9.919-27.96-27.959-27.96-48.596 0-10.388 2.818-20.118 7.731-28.467l-0.143 0.263c2.23-3.768 4.653-7.031 7.373-10.019l-0.043 0.048c-9.19-10.064-14.82-23.517-14.82-38.284 0-16.541 7.063-31.432 18.337-41.822l0.040-0.036c9.929-9.124 23.23-14.716 37.836-14.716 0.208 0 0.415 0.001 0.622 0.003h151.682c0.042 0 0.092 0 0.143 0 31.343 0 56.751 25.408 56.751 56.751 0 14.688-5.58 28.073-14.736 38.15l0.042-0.047c9.197 9.976 14.836 23.355 14.836 38.050 0 16.357-6.986 31.082-18.138 41.355l-0.039 0.036c-2.939 2.678-6.202 5.1-9.695 7.178l-0.276 0.152 15.198 24.684zM584.92 63.569h-151.714c-9.572 1.055-16.952 9.097-16.952 18.863s7.379 17.808 16.866 18.856l0.085 0.008h151.714c0.606 0.069 1.308 0.108 2.019 0.108 10.477 0 18.971-8.494 18.971-18.971s-8.494-18.971-18.971-18.971c-0.711 0-1.414 0.039-2.105 0.115l0.085-0.008zM584.92 139.453h-151.714c-0.606-0.069-1.308-0.108-2.019-0.108-10.477 0-18.971 8.494-18.971 18.971s8.494 18.971 18.971 18.971c0.711 0 1.414-0.039 2.105-0.115l-0.085 0.008h151.714c0.606 0.069 1.308 0.108 2.019 0.108 10.477 0 18.971-8.494 18.971-18.971s-8.494-18.971-18.971-18.971c-0.711 0-1.414 0.039-2.105 0.115l0.085-0.008zM613.861 267.021l-7.599-4.042c-2.942-1.693-5.341-4.023-7.065-6.814l-0.049-0.085-24.899-40.798h-8.3v143.899l89.357 89.357-26.947 26.947-94.855-94.855c-3.334-3.392-5.393-8.047-5.393-13.183 0-0.121 0.001-0.242 0.003-0.363v0.018-151.714h-37.726v151.66c0.001 0.058 0.001 0.126 0.001 0.194 0 5.183-2.055 9.887-5.396 13.339l-94.85 94.85-26.947-26.947 89.357-89.357v-143.899h-8.3l-24.738 40.691c-1.773 2.876-4.172 5.206-7.018 6.848l-7.695 4.093c-0.701 0-1.186 0.701-1.886 0.97-82.851 33.917-140.153 113.919-140.153 207.306 0 1.222 0.010 2.442 0.029 3.66l-0.002-0.184c9.218 128.94 116.085 230.053 246.568 230.053s237.35-101.113 246.523-229.259l0.046-0.794c0.015-0.969 0.024-2.113 0.024-3.259 0-93.444-57.29-173.507-138.661-206.981l-1.489-0.542zM67.476 710.306l16.96 33.92 113.806-56.903-16.96-33.92-113.806 56.903zM815.481 696.832l120.759 40.279 12.005-35.993-120.759-40.279-12.005 35.993zM0 499.793h113.826v-37.942h-113.826v37.942zM904.3 499.793h113.826v-37.942h-113.826v37.942zM67.476 213.342l113.806 56.903 16.96-33.92-113.806-56.903-16.96 33.92zM820.008 236.086l16.96 33.92 113.806-56.903-16.96-33.92-113.806 56.903zM490.119 879.104h37.942v-94.855h-37.942v94.855z" />
<glyph unicode="&#xe91c;" glyph-name="left-arrow" d="M842.325 839.083l-387.499-387.499 387.499-387.499-120.491-121.003-508.501 508.501 508.501 508.501z" />
<glyph unicode="&#xe91d;" glyph-name="list-arrow" horiz-adv-x="1011" d="M499.231 960l511.942-511.942-511.942-511.942-62.039 62.039 450.485 449.902-450.485 449.902zM62.039 960l512.058-511.942-511.942-511.942-62.039 62.039 449.902 449.902-449.902 449.902z" />
<glyph unicode="&#xe91e;" glyph-name="modify" horiz-adv-x="1023" d="M884.564 938.442c0.227 0.002 0.495 0.003 0.763 0.003 16.14 0 31.472-3.462 45.293-9.683l-0.698 0.281c14.413-6.413 26.728-14.944 37.169-25.355l-0.003 0.003c10.457-10.491 18.998-22.899 25.048-36.651l0.304-0.774c5.941-13.261 9.401-28.74 9.401-45.028 0-0.237-0.001-0.474-0.002-0.711v0.036c0.011-0.573 0.017-1.249 0.017-1.926 0-13.152-2.281-25.771-6.468-37.483l0.242 0.777c-4.393-11.825-10.070-22.057-17.035-31.26l0.219 0.303c-7.572-9.983-15.487-18.828-24.055-26.992l-0.090-0.085q-13.538-12.935-27.68-27.077v-739.263h-905.432v905.432h739.177q14.142 14.142 27.422 27.68c8.368 8.583 17.32 16.496 26.829 23.713l0.593 0.431c8.827 6.75 18.922 12.548 29.74 16.934l0.873 0.313c10.703 4.058 23.078 6.408 36.002 6.408 0.834 0 1.665-0.010 2.494-0.029l-0.123 0.002zM884.564 862.989c-0.12 0.001-0.262 0.002-0.405 0.002-11.428 0-21.743-4.76-29.073-12.405l-0.013-0.014-558.781-558.781-20.351-79.85 79.592 20.006 558.781 558.781c7.66 7.343 12.419 17.659 12.419 29.086 0 0.142-0.001 0.285-0.002 0.426v-0.022c0.004 0.204 0.006 0.444 0.006 0.685 0 11.578-4.865 22.020-12.663 29.392l-0.019 0.018c-7.458 7.761-17.902 12.604-29.478 12.676h-0.013zM851.537 621.541l-457.027-457.027-222.046-56.051 55.447 222.219 457.027 457.027h-587.927v-754.526h754.526z" />
<glyph unicode="&#xe91f;" glyph-name="notification" d="M867.738 125.133l-50.227 94.259v232.806c-0.183 143.321-95.517 264.325-226.213 303.248l-2.241 0.573v116.173c0.016 0.631 0.026 1.374 0.026 2.12 0 48.467-39.29 87.757-87.757 87.757s-87.757-39.29-87.757-87.757c0-0.745 0.009-1.488 0.028-2.229l-0.002 0.11v-116.224c-132.938-39.496-228.271-160.501-228.454-303.8v-232.827l-50.278-94.208c-4.295-7.9-6.82-17.3-6.82-27.29 0-32.038 25.972-58.010 58.010-58.010 0.004 0 0.007 0 0.011 0h199.679c3.512-61.213 54.008-109.524 115.789-109.524s112.277 48.31 115.775 109.214l0.014 0.309h199.424c0.003 0 0.007 0 0.010 0 32.038 0 58.010 25.972 58.010 58.010 0 9.99-2.525 19.389-6.972 27.596l0.152-0.306zM459.981 872.192c0 22.82 18.499 41.318 41.318 41.318s41.318-18.499 41.318-41.318v0-106.496c-12.41 1.719-26.75 2.701-41.318 2.701s-28.908-0.981-42.956-2.882l1.637 0.181zM231.526 452.352c0 148.991 120.781 269.773 269.773 269.773s269.773-120.781 269.773-269.773v0-213.606h-539.546zM501.299-23.091c-0.052 0-0.114 0-0.175 0-36.077 0-65.746 27.436-69.279 62.582l-0.024 0.292h138.752c-3.58-35.416-33.219-62.833-69.27-62.874h-0.004zM826.47 92.006c-2.021-3.394-5.671-5.632-9.843-5.632-0.031 0-0.063 0-0.094 0h-630.472c-6.403 0.021-11.585 5.217-11.585 11.622 0 1.985 0.498 3.855 1.375 5.489l-0.030-0.062 47.411 88.525h556.186l47.36-88.883c0.833-1.546 1.323-3.383 1.323-5.334 0-2.171-0.606-4.201-1.658-5.929l0.029 0.050zM501.299 660.070c-114.746-0.146-207.726-93.126-207.872-207.858v-0.014c0-12.824 10.396-23.219 23.219-23.219s23.219 10.396 23.219 23.219v0c0.087 89.15 72.334 161.397 161.476 161.485h0.008c12.824 0 23.219 10.396 23.219 23.219s-10.396 23.219-23.219 23.219v0z" />
<glyph unicode="&#xe920;" glyph-name="worddoc" horiz-adv-x="976" d="M942.929 818.996c1.258 0.161 2.714 0.252 4.19 0.252 8.409 0 16.123-2.974 22.148-7.927l-0.061 0.048c4.426-6.341 7.072-14.21 7.072-22.697 0-1.378-0.070-2.739-0.206-4.081l0.014 0.169v-673.521c0.122-1.173 0.192-2.535 0.192-3.913 0-8.487-2.646-16.356-7.158-22.827l0.086 0.13c-5.965-4.905-13.679-7.879-22.087-7.879-1.477 0-2.932 0.092-4.361 0.27l0.171-0.017h-303.064v101.629h269.408v33.158h-269.408v68.388h269.408v33.158h-269.408v66.813h269.408v34.733h-269.408v66.316h269.408v33.655h-269.408v67.891h269.408v33.158h-269.408v68.388h269.408v33.158h-269.408v101.546zM0 820.074l606.21 139.926v-1023.917l-606.21 139.926zM82.895 635.881l71.041-343.102 73.694-4.228 49.737 229.453q0.497 2.653 1.078 4.476t1.078 4.476c0.944 4.487 1.68 9.882 2.052 15.377l0.020 0.373q0.497 8.289 1.575 15.75h1.492c0-0.048 0-0.104 0-0.16 0-7.192 0.482-14.271 1.416-21.207l-0.089 0.81q1.326-10.030 3.399-19.978l50.566-235.67 79.994-4.725 89.444 383.637-76.844-4.228-45.261-253.078q-2.072-10.528-3.399-20.807c-0.844-6.238-1.326-13.448-1.326-20.771 0-0.013 0-0.025 0-0.038v0.002h-0.497q-1.243 10.030-2.155 20.309c-0.811 7.851-1.921 14.745-3.382 21.509l0.232-1.282-51.561 247.275-73.113-4.228-52.638-236.748c-1.559-5.563-2.952-12.415-3.89-19.411l-0.089-0.815c-0.844-6.238-1.326-13.448-1.326-20.771 0-0.013 0-0.025 0-0.038v0.002h-1.575c-0.016 7.144-0.407 14.177-1.154 21.103l0.077-0.877q-1.326 10.030-2.57 20.309l-39.458 231.525z" />
<glyph unicode="&#xe921;" glyph-name="pencil" d="M1024 792.458c0-0.018 0-0.040 0-0.062 0-23.065-4.602-45.054-12.938-65.101l0.414 1.123c-8.742-21.492-21.090-39.83-36.464-55.132l-658.517-658.596-316.495-78.769 78.769 316.495 658.511 658.511c15.308 15.38 33.647 27.728 54.047 36.075l1.092 0.395c18.923 7.922 40.913 12.524 63.978 12.524 0.049 0 0.099 0 0.148 0h-0.008c0.294 0.002 0.642 0.003 0.99 0.003 23.137 0 45.136-4.871 65.028-13.643l-1.033 0.406c20.673-8.994 38.332-21.125 53.252-36.002l-0.004 0.004c14.872-14.916 27.004-32.575 35.569-52.15l0.428-1.098c8.366-18.859 13.236-40.858 13.236-63.995 0-0.348-0.001-0.696-0.003-1.043v0.054zM162.974 245.957c35.763-11.77 66.341-30.916 91.216-55.77l-0.001 0.001c24.852-24.873 43.999-55.452 55.306-89.601l0.463-1.614 540.751 540.908-146.668 146.747zM87.985 23.906l164.47 41.039c-3.58 16.416-9.151 30.943-16.567 44.305l0.42-0.824c-7.689 13.942-16.745 25.935-27.257 36.473l0.003-0.003c-10.556 10.544-22.575 19.626-35.727 26.915l-0.822 0.418c-12.536 7.023-27.061 12.62-42.409 16.027l-1.071 0.2zM896 685.568q12.524 12.524 23.631 23.631c7.378 7.143 14.1 14.865 20.128 23.125l0.352 0.506c5.67 7.618 10.48 16.361 14.013 25.729l0.244 0.737c3.355 9.37 5.294 20.18 5.294 31.444 0 0.632-0.006 1.262-0.018 1.891l0.001-0.094c0.008 0.462 0.012 1.007 0.012 1.553 0 13.98-2.902 27.282-8.136 39.337l0.247-0.639c-5.645 12.647-13.146 23.451-22.293 32.612l0.001-0.001c-9.256 9.269-20.196 16.854-32.322 22.256l-0.683 0.272c-11.416 4.987-24.718 7.889-38.698 7.889-0.546 0-1.091-0.004-1.635-0.013l0.082 0.001c-0.535 0.011-1.165 0.017-1.797 0.017-11.263 0-22.073-1.939-32.115-5.502l0.672 0.208c-10.106-3.777-18.848-8.587-26.753-14.461l0.286 0.203c-8.766-6.38-16.487-13.102-23.585-20.432l-0.046-0.048q-11.028-11.5-23.631-23.631z" />
<glyph unicode="&#xe922;" glyph-name="calendar-time" d="M128.922 765.235v115.2c1.892 16.292 15.611 28.82 32.256 28.82s30.364-12.528 32.242-28.669l0.014-0.151v-115.2c-1.892-16.292-15.611-28.82-32.256-28.82s-30.364 12.528-32.242 28.669l-0.014 0.151zM676.966 736.461c0.476-0.026 1.034-0.041 1.595-0.041 16.296 0 29.629 12.689 30.656 28.726l0.005 0.090v115.2c-1.892 16.292-15.611 28.82-32.256 28.82s-30.364-12.528-32.242-28.669l-0.014-0.151v-115.2c0.766-16.356 14.212-29.326 30.688-29.326 0.551 0 1.099 0.015 1.644 0.043l-0.076-0.003zM1031.578 217.907c1.048-8.758 1.646-18.901 1.646-29.184 0-143.364-116.22-259.584-259.584-259.584s-259.584 116.22-259.584 259.584c0 143.362 116.216 259.58 259.576 259.584v0c3.8 0.21 8.248 0.33 12.723 0.33 130.586 0 237.384-101.849 245.291-230.444l0.034-0.695zM967.066 217.907c0.774 6.515 1.215 14.060 1.215 21.709 0 107.453-87.107 194.56-194.56 194.56s-194.56-87.107-194.56-194.56c0-107.421 87.057-194.51 194.467-194.56h0.005c2.862-0.159 6.212-0.249 9.583-0.249 97.706 0 177.655 76.023 183.924 172.143l0.029 0.548zM257.843 563.61h-128.922v-115.814h128.922zM128.922 275.558h128.922v115.2h-128.922zM322.355 448.41h128.922v115.2h-128.922zM322.355 275.558h128.922v115.2h-128.922zM64.41 223.642v397.517h709.222v-115.2h64.512v224.666c-1.81 35.423-30.972 63.46-66.683 63.46-1.109 0-2.212-0.027-3.308-0.081l0.154 0.006h-26.931v-28.774c-3.99-32.378-31.327-57.2-64.461-57.2s-60.471 24.822-64.429 56.885l-0.032 0.315v28.774h-387.174v-28.774c-3.99-32.378-31.327-57.2-64.461-57.2s-60.471 24.822-64.429 56.885l-0.032 0.315v28.774h-26.829c-0.912 0.045-1.982 0.070-3.057 0.070-35.73 0-64.914-28.023-66.773-63.29l-0.007-0.166v-507.085c1.866-35.432 31.050-63.456 66.78-63.456 1.075 0 2.144 0.025 3.207 0.076l-0.15-0.006h381.44v57.549h-381.133c-2.965 0.162-5.322 2.554-5.427 5.52v0.010zM645.12 447.795v115.2h-129.331v-115.2zM870.4 217.395h-96.666v86.426c-1.892 16.292-15.611 28.82-32.256 28.82s-30.364-12.528-32.242-28.669l-0.014-0.151v-115.2c1.032-16.127 14.365-28.816 30.661-28.816 0.561 0 1.119 0.015 1.672 0.045l-0.077-0.003h128.922c1.032-0.13 2.227-0.205 3.439-0.205 16.005 0 28.979 12.974 28.979 28.979s-12.974 28.979-28.979 28.979c-1.212 0-2.407-0.074-3.58-0.219l0.141 0.014z" />
<glyph unicode="&#xe923;" glyph-name="pguser" d="M82.688-2.944l-18.048 4.864-0.64 3.584v225.92c12.902 156.892 143.415 279.335 302.525 279.335 7.14 0 14.221-0.247 21.238-0.732l-0.947 0.052h213.888c6.072 0.433 13.158 0.679 20.3 0.679 159.136 0 289.678-122.431 302.571-278.239l0.073-1.096v-225.92h-2.048l-16.896-7.424c-104.681-39.533-225.692-62.419-352.049-62.419-10.875 0-21.711 0.17-32.505 0.506l1.577-0.039c-156.606 0.937-307.646 23.122-450.902 63.808l11.862-2.88zM469.888 356.736l-21.888-283.264c-0.105-0.246-0.165-0.532-0.165-0.832s0.061-0.586 0.171-0.846l-0.005 0.014 42.752-58.24c0.629-0.82 1.591-1.357 2.68-1.408h0.008c0.019 0 0.042-0.001 0.064-0.001 1.063 0 2.009 0.498 2.618 1.273l0.005 0.007 46.208 58.24c0.108 0.265 0.171 0.573 0.171 0.896s-0.063 0.631-0.177 0.912l0.006-0.016-21.248 283.264c-0.253 1.536-1.571 2.692-3.159 2.692-0.059 0-0.118-0.002-0.177-0.005h-44.152c-0.126 0.018-0.272 0.028-0.421 0.028-1.596 0-2.92-1.169-3.161-2.698l-0.002-0.018zM423.68 449.92l46.080-82.048h52.864l44.672 82.048c-0.648 8.016-7.313 14.277-15.441 14.277-0.512 0-1.019-0.025-1.519-0.074l0.063 0.005h-110.080c-0.321 0.024-0.696 0.037-1.074 0.037-8.116 0-14.775-6.243-15.434-14.189l-0.004-0.056zM241.664 742.528c9.97 122.505 111.848 218.148 236.064 218.148 5.664 0 11.281-0.199 16.845-0.59l-0.749 0.042c4.818 0.349 10.438 0.548 16.105 0.548 124.242 0 226.148-95.63 236.126-217.298l0.056-0.85c-10.035-122.518-111.941-218.148-236.183-218.148-5.667 0-11.288 0.199-16.855 0.59l0.75-0.042c-4.815-0.349-10.432-0.548-16.096-0.548-124.216 0-226.094 95.642-236.009 217.303l-0.055 0.845z" />
<glyph unicode="&#xe924;" glyph-name="policyfile" horiz-adv-x="896" d="M896 557.511v-621.511h-640v192h-256v832h429.511l192-192h64zM704 576h82.489l-82.489 82.489zM256 768h274.489l-128 128h-338.489v-704h192zM832 512h-192v192h-320v-704h512z" />
<glyph unicode="&#xe925;" glyph-name="book" horiz-adv-x="956" d="M832 960v-1024h-704c-0.246-0.002-0.536-0.003-0.827-0.003-17.674 0-34.487 3.687-49.711 10.335l0.801-0.312c-15.827 6.837-29.343 16.11-40.741 27.502l0.001-0.001c-11.391 11.398-20.665 24.913-27.179 39.906l-0.323 0.835c-6.336 14.423-10.023 31.236-10.023 48.91 0 0.291 0.001 0.581 0.003 0.872v-0.045 768c0.077 17.283 4.034 33.623 11.045 48.219l-0.293-0.676c7.379 15.88 16.954 29.455 28.526 41.034v0c11.511 11.53 24.983 21.097 39.876 28.157l0.865 0.369c14.037 6.845 30.536 10.862 47.969 10.898h0.012zM768 128h-640c-0.199 0.002-0.435 0.004-0.67 0.004-8.796 0-17.164-1.831-24.745-5.133l0.4 0.155c-7.867-3.44-14.586-8.073-20.26-13.751v0c-5.678-5.674-10.311-12.393-13.587-19.844l-0.164-0.417c-3.146-7.18-4.977-15.549-4.977-24.345 0-0.236 0.001-0.471 0.004-0.706v0.036c-0.002-0.199-0.004-0.435-0.004-0.67 0-8.796 1.831-17.164 5.133-24.745l-0.155 0.4c3.44-7.867 8.073-14.586 13.751-20.26v0c5.674-5.678 12.393-10.311 19.844-13.587l0.417-0.164c7.18-3.146 15.549-4.977 24.345-4.977 0.236 0 0.471 0.001 0.706 0.004h639.964zM64 175.031c18.265 10.67 40.212 16.97 63.63 16.97 0.13 0 0.26 0 0.39-0.001h639.98v704h-640c-8.411-0.114-16.302-2.238-23.245-5.913l0.278 0.134c-7.883-3.944-14.639-8.831-20.485-14.633l0.005 0.005c-5.798-5.841-10.685-12.597-14.423-20.030l-0.205-0.45c-3.54-6.665-5.665-14.555-5.778-22.931v-0.036zM192 768h448v-192h-448zM256 640h320v64h-320z" />
<glyph unicode="&#xe926;" glyph-name="mail" d="M1024 755.302v-640h-1024v640zM71.68 691.302l440.32-220.467 440.32 220.467zM960.205 179.302v444.006l-448.205-223.539-448 223.539v-444.006z" />
<glyph unicode="&#xe927;" glyph-name="qasearch" d="M658.688 917.419c0.215 0.001 0.47 0.001 0.724 0.001 30.109 0 59.243-4.175 86.855-11.978l-2.246 0.542c29.207-8.18 54.715-19.275 78.26-33.319l-1.46 0.807c24.788-14.78 46.207-31.555 65.271-50.679l0.009-0.009c19.133-19.073 35.908-40.492 49.863-63.794l0.825-1.486c13.237-22.085 24.331-47.592 31.968-74.553l0.544-2.247c7.26-25.366 11.435-54.5 11.435-84.609 0-0.255 0-0.509-0.001-0.764v0.039c0.001-0.215 0.001-0.47 0.001-0.724 0-30.109-4.175-59.243-11.978-86.855l0.542 2.246c-8.18-29.207-19.275-54.715-33.319-78.26l0.807 1.46c-14.78-24.788-31.555-46.207-50.679-65.271l-0.009-0.009c-19.073-19.133-40.492-35.908-63.794-49.863l-1.486-0.825c-22.085-13.237-47.592-24.331-74.553-31.968l-2.247-0.544c-25.366-7.26-54.5-11.435-84.609-11.435-0.255 0-0.509 0-0.764 0.001h0.039c-0.293-0.001-0.64-0.002-0.988-0.002-39.033 0-76.415 7.072-110.933 20.004l2.182-0.717c-37.066 13.392-69.107 31.745-97.288 54.663l0.605-0.477-359.68-359.509c-5.123-5.268-12.278-8.536-20.196-8.536-0.13 0-0.26 0.001-0.389 0.003h0.020c-0.185-0.004-0.403-0.007-0.621-0.007-7.92 0-15.077 3.27-20.194 8.534l-0.006 0.007c-5.27 5.123-8.54 12.28-8.54 20.2 0 0.218 0.002 0.436 0.007 0.653l-0.001-0.032c-0.002 0.11-0.002 0.24-0.002 0.369 0 7.918 3.268 15.073 8.529 20.19l0.007 0.006 359.509 359.68c-22.897 27.504-41.662 59.476-54.719 94.24l-0.748 2.272c-12.215 32.336-19.287 69.718-19.287 108.751 0 0.347 0.001 0.694 0.002 1.041v-0.054c-0.001 0.215-0.001 0.47-0.001 0.724 0 30.109 4.175 59.243 11.978 86.855l-0.542-2.246c8.18 29.207 19.275 54.715 33.319 78.26l-0.807-1.46c14.78 24.788 31.555 46.207 50.679 65.271l0.009 0.009c19.073 19.133 40.492 35.908 63.794 49.863l1.486 0.825c22.085 13.237 47.592 24.331 74.553 31.968l2.247 0.544c25.742 7.621 55.333 12.069 85.943 12.202h0.073zM658.688 330.752c0.412-0.002 0.898-0.004 1.386-0.004 36.514 0 71.238 7.662 102.653 21.467l-1.638-0.642c32.506 14.152 60.268 33.248 83.715 56.664l-0.003-0.003c23.396 23.493 42.467 51.314 55.905 82.154l0.671 1.729c13.163 29.776 20.825 64.5 20.825 101.014 0 0.487-0.001 0.974-0.004 1.46v-0.075c0.002 0.412 0.004 0.898 0.004 1.386 0 36.514-7.662 71.238-21.467 102.653l0.642-1.638c-14.1 32.602-33.173 60.452-56.586 83.979l0.010-0.011c-23.493 23.396-51.314 42.467-82.154 55.905l-1.729 0.671c-29.776 13.163-64.5 20.825-101.014 20.825-0.487 0-0.974-0.001-1.46-0.004h0.075c-0.412 0.002-0.898 0.004-1.386 0.004-36.514 0-71.238-7.662-102.653-21.467l1.638 0.642c-32.569-14.109-60.39-33.18-83.892-56.585l0.009 0.009c-23.396-23.493-42.467-51.314-55.905-82.154l-0.671-1.729c-13.163-29.776-20.825-64.5-20.825-101.014 0-0.487 0.001-0.974 0.004-1.46v0.075c-0.002-0.412-0.004-0.898-0.004-1.386 0-36.514 7.662-71.238 21.467-102.653l-0.642 1.638c14.109-32.569 33.18-60.39 56.585-83.892l-0.009 0.009c23.493-23.396 51.314-42.467 82.154-55.905l1.729-0.671c29.882-13.269 64.743-20.995 101.407-20.995 0.409 0 0.818 0.001 1.227 0.003h-0.063z" />
<glyph unicode="&#xe928;" glyph-name="excel" horiz-adv-x="956" d="M973.966 852.158c3.994-0.363 7.598-1.781 10.607-3.968l-0.061 0.042c4.546-2.891 8.5-6.013 12.108-9.49l-0.023 0.022c3.661-3.46 6.95-7.237 9.848-11.312l0.158-0.235c2.372-2.951 3.916-6.657 4.229-10.709l0.004-0.067v-715.869c-0.139-3.561-1.742-6.722-4.22-8.918l-0.013-0.011c-2.932-3.012-6.304-5.575-10.018-7.589l-0.219-0.109c-3.518-1.891-7.627-3.592-11.914-4.88l-0.479-0.124c-2.954-0.999-6.37-1.661-9.913-1.844l-0.094-0.004h-334.149v68.431h101.53v100.068h-101.53v34.716h101.53v100.068h-101.53v34.716h101.53v100.068h-101.53v34.716h101.53v100.068h-101.53v34.716h101.53v100.068h-101.53v67.892zM942.406 245.44h-167.883v-100.068h167.883zM942.406 380.146h-167.883v-100.068h167.883zM942.406 514.853h-167.883v-100.068h167.883zM942.406 649.559h-167.883v-100.068h167.883zM942.406 784.266h-167.883v-100.068h167.883zM0 820.059l606.179 139.941v-1023.769l-606.179 139.787zM236.775 441.727l-104.224-195.209 87.367-4.772 58.424 127.856 1.847 5.542q1.309 3.926 2.617 8.39t2.386 8.39c0.526 1.617 0.908 3.502 1.071 5.449l0.006 0.093h1.001q1.078-4.234 1.847-8.39t1.847-8.39c0.588-3.955 1.887-7.511 3.769-10.68l-0.074 0.135 61.041-136.323 98.374-5.773-113.692 215.222 110.844 211.605-92.37-5.234-56.885-125.315c-2.596-5.059-4.765-10.939-6.207-17.098l-0.105-0.53q-2.078-9.237-4.772-18.166h-1.309c-1.217 6.835-2.765 12.761-4.723 18.497l0.258-0.87q-2.925 8.698-6.081 16.55l-48.109 119.004-89.907-4.772z" />
<glyph unicode="&#xe929;" glyph-name="queans" d="M880.981 200.59c22.703-11.066 42.225-24.516 59.441-40.426l-0.163 0.149c17.063-15.746 31.933-33.472 44.357-52.913l0.642-1.075c11.775-18.411 21.564-39.652 28.274-62.218l0.455-1.782c6.355-21.027 10.013-45.192 10.013-70.211 0-0.177 0-0.353-0.001-0.53v0.028h-64c0.002 0.321 0.003 0.7 0.003 1.079 0 26.559-5.612 51.807-15.715 74.623l0.465-1.178c-10.321 23.672-24.219 43.894-41.25 60.991l0.006-0.006c-17.091 17.026-37.313 30.923-59.725 40.752l-1.26 0.493c-21.638 9.637-46.886 15.249-73.445 15.249-0.379 0-0.758-0.001-1.137-0.003h0.058c-0.321 0.002-0.7 0.003-1.079 0.003-26.559 0-51.807-5.612-74.623-15.715l1.178 0.465c-23.672-10.321-43.894-24.219-60.991-41.25l0.006 0.006c-17.026-17.091-30.923-37.313-40.752-59.725l-0.493-1.26c-9.637-21.638-15.249-46.886-15.249-73.445 0-0.379 0.001-0.758 0.003-1.137v0.058h-64c0 0.166-0.001 0.362-0.001 0.559 0 25.019 3.658 49.184 10.469 71.988l-0.456-1.777c7.165 24.348 16.954 45.589 29.335 65.018l-0.606-1.018c13.066 20.515 27.936 38.242 44.817 53.821l0.182 0.166c17.052 15.761 36.575 29.212 57.847 39.643l1.431 0.634c-24.473 17.58-44.162 40.29-57.764 66.652l-0.491 1.046c-13.089 25.085-20.767 54.785-20.767 86.279 0 0.348 0.001 0.695 0.003 1.042v-0.054c-0.002 0.318-0.003 0.693-0.003 1.069 0 26.541 5.526 51.791 15.49 74.662l-0.468-1.207c10.225 23.806 24.137 44.135 41.247 61.272l-0.002-0.002c17.069 17.063 37.297 30.967 59.732 40.757l1.252 0.487c21.633 9.497 46.849 15.024 73.356 15.024 0.491 0 0.981-0.002 1.471-0.006h-0.075c0.318 0.002 0.693 0.003 1.069 0.003 26.541 0 51.791-5.526 74.662-15.49l-1.207 0.468c23.806-10.225 44.135-24.137 61.272-41.247l-0.002 0.002c17.107-17.134 31.019-37.463 40.762-60.015l0.482-1.254c9.496-21.665 15.022-46.915 15.022-73.455 0-0.376-0.001-0.751-0.003-1.127v0.058c0.002-0.294 0.003-0.641 0.003-0.989 0-31.494-7.678-61.194-21.265-87.331l0.498 1.052c-14.101-27.434-33.81-50.165-57.754-67.374l-0.557-0.381zM768 227.612c0.249-0.002 0.543-0.003 0.837-0.003 17.684 0 34.507 3.684 49.744 10.327l-0.803-0.312c15.823 6.831 29.336 16.096 40.734 27.479l-0.001-0.001c11.381 11.397 20.646 24.909 27.154 39.897l0.323 0.836c6.331 14.434 10.015 31.257 10.015 48.941 0 0.294-0.001 0.588-0.003 0.882v-0.045c0.002 0.249 0.003 0.543 0.003 0.837 0 17.684-3.684 34.507-10.327 49.744l0.312-0.803c-6.831 15.823-16.096 29.336-27.479 40.734l0.001-0.001c-11.397 11.381-24.909 20.646-39.897 27.154l-0.836 0.323c-14.434 6.331-31.257 10.015-48.941 10.015-0.294 0-0.588-0.001-0.882-0.003h0.045c-0.249 0.002-0.543 0.003-0.837 0.003-17.684 0-34.507-3.684-49.744-10.327l0.803 0.312c-15.823-6.831-29.336-16.096-40.734-27.479l0.001 0.001c-11.381-11.397-20.646-24.909-27.154-39.897l-0.323-0.836c-6.331-14.434-10.015-31.257-10.015-48.941 0-0.294 0.001-0.588 0.003-0.882v0.045c-0.002-0.249-0.003-0.543-0.003-0.837 0-17.684 3.684-34.507 10.327-49.744l-0.312 0.803c6.831-15.823 16.096-29.336 27.479-40.734l-0.001 0.001c11.397-11.381 24.909-20.646 39.897-27.154l0.836-0.323c14.434-6.331 31.257-10.015 48.941-10.015 0.294 0 0.588 0.001 0.882 0.003h-0.045zM1024 931.612v-512c0.012 0.764 0.019 1.666 0.019 2.57 0 13.979-1.645 27.573-4.752 40.601l0.239-1.186c-3.125 12.685-7.436 23.807-12.957 34.187l0.385-0.793c-6.171 11.394-12.809 21.208-20.285 30.307l0.26-0.327q-11.776 14.507-26.738 31.516v311.125h-896.171v-576h128v-133.518l133.518 133.518h194.958c3.034-12.781 6.722-23.786 11.265-34.336l-0.513 1.34c5.255-12.429 10.36-22.615 16.011-32.448l-0.765 1.443h-194.446l-224.028-224.028v224.028h-128v704z" />
<glyph unicode="&#xe92a;" glyph-name="quicklinks" d="M800.028 568.889c0.437 0.003 0.954 0.005 1.471 0.005 31.019 0 60.513-6.533 87.179-18.299l-1.383 0.545c27.56-12.011 51.102-28.19 71.004-48.021l-0.007 0.007c19.824-19.895 36.003-43.437 47.441-69.531l0.573-1.466c11.186-25.248 17.698-54.697 17.698-85.667 0-0.563-0.002-1.125-0.006-1.687l0.001 0.086c0.003-0.437 0.005-0.954 0.005-1.471 0-31.019-6.533-60.513-18.299-87.179l0.545 1.383c-12.011-27.56-28.19-51.102-48.021-71.004l0.007 0.007c-19.895-19.824-43.437-36.003-69.531-47.441l-1.466-0.573c-25.283-11.221-54.777-17.754-85.796-17.754-0.517 0-1.034 0.002-1.551 0.005h-255.921c-0.437-0.003-0.954-0.005-1.471-0.005-31.019 0-60.513 6.533-87.179 18.299l1.383-0.545c-27.56 12.011-51.102 28.19-71.004 48.021l0.007-0.007c-19.824 19.895-36.003 43.437-47.441 69.531l-0.573 1.466c-11.221 25.283-17.754 54.777-17.754 85.796 0 0.517 0.002 1.034 0.005 1.551v-0.079c-0.003 0.437-0.005 0.954-0.005 1.471 0 31.019 6.533 60.513 18.299 87.179l-0.545-1.383c12.011 27.56 28.19 51.102 48.021 71.004l-0.007-0.007c19.895 19.824 43.437 36.003 69.531 47.441l1.466 0.573c25.283 11.221 54.777 17.754 85.796 17.754 0.517 0 1.034-0.002 1.551-0.005h31.949v-64c-0.346 0.001-0.756 0.002-1.166 0.002-25.423 0-50.1-3.196-73.651-9.208l2.056 0.445c-23.349-5.732-43.836-15.392-61.789-28.346l0.52 0.357c-17.672-12.977-31.935-29.55-41.901-48.716l-0.368-0.778c-9.991-20.153-15.836-43.884-15.836-68.981 0-1.749 0.028-3.492 0.085-5.228l-0.007 0.253c-0.002-0.299-0.003-0.652-0.003-1.006 0-22.067 4.692-43.039 13.132-61.971l-0.386 0.968c8.675-19.688 20.284-36.509 34.479-50.749l-0.004 0.004c14.236-14.191 31.056-25.8 49.692-34.058l1.053-0.416c17.964-8.055 38.935-12.746 61.003-12.746 0.354 0 0.707 0.001 1.060 0.004h255.946c0.299-0.002 0.652-0.003 1.006-0.003 22.067 0 43.039 4.692 61.971 13.132l-0.968-0.386c19.688 8.675 36.509 20.284 50.749 34.479l-0.004-0.004c14.191 14.236 25.8 31.056 34.058 49.692l0.416 1.053c8.055 17.964 12.746 38.935 12.746 61.003 0 0.354-0.001 0.707-0.004 1.060v-0.054c0.050 1.483 0.078 3.225 0.078 4.975 0 25.097-5.846 48.828-16.25 69.906l0.413-0.926c-10.333 19.943-24.596 36.516-41.879 49.22l-0.389 0.273c-17.433 12.598-37.921 22.257-60.057 27.736l-1.212 0.254c-21.495 5.567-46.172 8.763-71.595 8.763-0.41 0-0.82-0.001-1.23-0.002h0.064v64zM448 312.889v64c0.346-0.001 0.756-0.002 1.166-0.002 25.423 0 50.1 3.196 73.651 9.208l-2.056-0.445c23.349 5.732 43.836 15.392 61.789 28.346l-0.52-0.357c17.672 12.977 31.935 29.55 41.901 48.716l0.368 0.778c9.991 20.153 15.836 43.884 15.836 68.981 0 1.749-0.028 3.492-0.085 5.228l0.007-0.253c0.002 0.299 0.003 0.652 0.003 1.006 0 22.067-4.692 43.039-13.132 61.971l0.386-0.968c-8.675 19.688-20.284 36.509-34.479 50.749l0.004-0.004c-14.236 14.191-31.056 25.8-49.692 34.058l-1.053 0.416c-17.964 8.055-38.935 12.746-61.003 12.746-0.354 0-0.707-0.001-1.060-0.004h-255.946c-0.299 0.002-0.652 0.003-1.006 0.003-22.067 0-43.039-4.692-61.971-13.132l0.968 0.386c-19.688-8.675-36.509-20.284-50.749-34.479l0.004 0.004c-14.191-14.236-25.8-31.056-34.058-49.692l-0.416-1.053c-8.055-17.964-12.746-38.935-12.746-61.003 0-0.354 0.001-0.707 0.004-1.060v0.054c-0.050-1.483-0.078-3.225-0.078-4.975 0-25.097 5.846-48.828 16.25-69.906l-0.413 0.926c10.333-19.943 24.596-36.516 41.879-49.22l0.389-0.273c17.433-12.598 37.921-22.257 60.057-27.736l1.212-0.254c21.495-5.567 46.17-8.763 71.593-8.763 0.351 0 0.702 0.001 1.052 0.002h-0.054v-64h-31.972c-0.504-0.004-1.099-0.007-1.695-0.007-31.021 0-60.516 6.534-87.183 18.301l1.383-0.545c-27.56 12.011-51.102 28.19-71.004 48.021l0.007-0.007c-19.737 19.904-35.843 43.446-47.215 69.526l-0.572 1.471c-11.221 25.283-17.754 54.776-17.754 85.795 0 0.498 0.002 0.995 0.005 1.492v-0.076c-0.003 0.437-0.005 0.954-0.005 1.471 0 31.019 6.533 60.513 18.299 87.179l-0.545-1.383c12.011 27.56 28.19 51.102 48.021 71.004l-0.007-0.007c19.834 19.805 43.299 35.98 69.308 47.44l1.461 0.574c25.283 11.221 54.777 17.754 85.796 17.754 0.517 0 1.034-0.002 1.551-0.005h255.921c0.437 0.003 0.954 0.005 1.471 0.005 31.019 0 60.513-6.533 87.179-18.299l-1.383 0.545c27.56-12.011 51.102-28.19 71.004-48.021l-0.007 0.007c19.824-19.895 36.003-43.437 47.441-69.531l0.573-1.466c11.221-25.283 17.754-54.777 17.754-85.796 0-0.517-0.002-1.034-0.005-1.551v0.079c0.003-0.437 0.005-0.954 0.005-1.471 0-31.019-6.533-60.513-18.299-87.179l0.545 1.383c-12.011-27.56-28.19-51.102-48.021-71.004l0.007 0.007c-19.895-19.824-43.437-36.003-69.531-47.441l-1.466-0.573c-25.283-11.221-54.777-17.754-85.796-17.754-0.517 0-1.034 0.002-1.551 0.005h0.079z" />
<glyph unicode="&#xe92b;" glyph-name="renival" d="M1005.037 817.702v-246.519h-246.519v61.592h152.159c-19.758 38.931-43.263 72.439-70.803 102.154l0.261-0.285c-27.341 29.506-58.268 55.102-92.24 76.27l-1.892 1.099c-32.048 20.064-69.007 36.95-108.165 48.762l-3.261 0.845c-36.532 11.216-78.524 17.674-122.024 17.674-0.194 0-0.388 0-0.583 0h0.030c-0.579 0.003-1.264 0.004-1.949 0.004-50.206 0-98.467-8.331-143.475-23.686l3.126 0.926c-47.457-16.009-88.635-37.912-125.412-65.383l1.167 0.833c-37.766-28.388-70.005-61.47-96.622-98.835l-0.924-1.365c-26.75-37.268-48.397-80.483-62.654-126.93l-0.834-3.156-58.709 18.66c16.917 55.841 41.394 104.489 72.748 147.836l-0.993-1.441c31.701 43.936 68.684 81.498 110.606 112.813l1.351 0.965c40.589 30.35 87.479 55.4 137.934 72.798l3.606 1.081c47.81 16.827 102.938 26.549 160.336 26.549 0.245 0 0.49 0 0.735-0.001h-0.038c0.254 0 0.555 0.001 0.856 0.001 45.395 0 89.393-5.979 131.25-17.191l-3.537 0.806c44.912-11.846 84.212-28.061 120.671-48.707l-2.494 1.299c39.045-22.144 72.763-47.284 102.994-76.055l-0.215 0.203c31.054-29.405 58.122-62.528 80.627-98.779l1.217-2.104v116.964zM113.323 262.997c19.758-38.931 43.263-72.439 70.803-102.154l-0.261 0.285c27.342-29.476 58.268-55.047 92.236-76.193l1.896-1.1c32.048-20.064 69.007-36.95 108.165-48.762l3.261-0.845c36.606-11.263 78.685-17.749 122.28-17.749 0.105 0 0.209 0 0.314 0h61.651v-56.813q-15.17-1.896-30.796-3.337t-30.872-1.441c-0.175 0-0.382 0-0.589 0-45.316 0-89.216 6.062-130.934 17.42l3.485-0.808c-45.052 12.076-84.436 28.46-120.987 49.251l2.507-1.313c-39.109 22.229-72.894 47.364-103.252 76.082l0.246-0.23c-31.017 29.122-58.072 61.893-80.64 97.77l-1.204 2.051v-116.964h-61.668v246.519h246.063v-61.668zM573.668 386.257h431.369v-308.186h-184.851v-61.668h61.137v-61.516h-184.396v61.592h61.592v61.592h-184.851zM635.335 139.738h308.186v184.927h-308.262z" />
<glyph unicode="&#xe92c;" glyph-name="email" d="M934 838h-844c-49.564 0-90-40.392-90-90v-600c0-49.44 40.256-90 90-90h844c49.44 0 90 40.256 90 90v600c0 49.44-40.256 90-90 90zM921.572 778l-407.664-407.666-411.19 407.666h818.854zM60 160.424v575.438l288.958-286.48-288.958-288.958zM102.426 118l289.14 289.14 101.314-100.444c11.728-11.628 30.654-11.59 42.334 0.092l98.786 98.786 287.574-287.574h-819.148zM964 160.426l-287.574 287.574 287.574 287.576v-575.15z" />
<glyph unicode="&#xe92d;" glyph-name="file-picture" d="M893.15 960h-762.3c-72.152 0-130.85-58.7-130.85-130.852v-762.298c0-72.15 58.698-130.85 130.85-130.85h762.3c72.152 0 130.85 58.7 130.85 130.852v762.296c0 72.152-58.698 130.852-130.85 130.852zM963.684 66.85c0-38.894-31.642-70.534-70.534-70.534h-762.3c-38.894 0-70.536 31.642-70.536 70.534v110.014l198.51 168.902c7.244 6.164 17.812 6.222 25.124 0.15l124.348-103.256c11.99-9.954 29.59-9.138 40.608 1.892l295.458 295.908c5.34 5.35 11.566 5.87 14.816 5.704 3.24-0.166 9.39-1.322 14.156-7.192l190.352-234.38v-237.742zM963.684 400.27l-143.532 176.732c-14.234 17.528-35.332 28.244-57.884 29.402-22.536 1.14-44.634-7.344-60.588-23.324l-276.016-276.442-103.18 85.678c-29.918 24.844-73.126 24.586-102.746-0.616l-159.424-135.644v573.092c0 38.894 31.642 70.536 70.536 70.536h762.3c38.894 0 70.534-31.642 70.534-70.536v-428.878zM322.348 834.010c-80.19 0-145.426-65.24-145.426-145.426 0-80.188 65.238-145.426 145.426-145.426s145.426 65.238 145.426 145.426-65.236 145.426-145.426 145.426zM322.348 603.472c-46.932 0-85.112 38.182-85.112 85.112 0 46.932 38.18 85.112 85.112 85.112s85.112-38.182 85.112-85.112-38.18-85.112-85.112-85.112z" />
<glyph unicode="&#xe92e;" glyph-name="export" horiz-adv-x="956" d="M804.571 82.286l73.143 73.143v-219.429h-877.714v731.429h73.143v-658.286h731.429zM731.429 374.857c-0.326 0.001-0.712 0.001-1.098 0.001-50.279 0-99.321-5.297-146.598-15.364l4.587 0.818c-51.496-10.839-96.689-25.622-139.591-44.632l4.423 1.749c-47.671-20.912-88.501-44.022-126.66-70.692l2.359 1.562c-40.877-28.451-76.667-58.987-109.225-92.666l-0.197-0.204v73.143c-0.002 0.488-0.003 1.067-0.003 1.646 0 47.909 6.685 94.257 19.173 138.162l-0.864-3.553c13.076 46.52 30.73 87.133 53.042 124.652l-1.298-2.358c23.293 39.279 49.774 73.209 79.993 103.399l0.004 0.004c30.194 30.223 64.125 56.705 101.042 78.695l2.361 1.303c35.162 21.014 75.775 38.668 118.685 50.866l3.61 0.877c40.351 11.624 86.7 18.309 134.609 18.309 0.578 0 1.156-0.001 1.734-0.003h-0.089v219.429l402.328-402.328-402.328-402.244zM789.107 667.429q-32.016 0-60.019-0.585t-55.421-3.678c-20.902-2.446-39.511-6.057-57.61-10.916l2.774 0.634c-23.283-6.206-42.752-12.943-61.593-20.878l3.078 1.151c-35.106-14.737-65.384-32.371-92.992-53.337l1.041 0.758c-28.571-21.586-53.514-45.547-75.38-72.134l-0.605-0.758c-21.223-25.762-40.074-54.851-55.42-85.978l-1.172-2.629c-14.371-28.862-26.114-62.397-33.53-97.528l-0.492-2.782c58.928 40.009 126.978 72.918 199.67 95.212l5.38 1.42c66.841 20.687 143.683 32.602 223.308 32.602 0.458 0 0.916 0 1.374-0.001h73.071v-116.025l225.698 225.698-225.698 225.698v-115.942z" />
<glyph unicode="&#xe92f;" glyph-name="save" d="M1010.559 677.454c-7.7 19.65-18.526 36.49-32.037 50.763l0.067-0.072-186.732 186.636c-14.204 13.439-31.043 24.265-49.639 31.604l-1.052 0.366c-17.22 7.904-37.301 12.76-58.449 13.34l-0.21 0.005h-618.567c-0.276 0.004-0.601 0.007-0.927 0.007-17.319 0-32.973-7.132-44.183-18.62l-0.012-0.012c-11.841-11.269-19.205-27.148-19.205-44.747 0-0.234 0.001-0.467 0.004-0.7v0.035-896.024c-0.006-0.332-0.010-0.724-0.010-1.116 0-17.321 7.133-32.975 18.623-44.186l0.013-0.012c11.223-11.502 26.878-18.635 44.198-18.635 0.393 0 0.784 0.004 1.175 0.011l-0.059-0.001h896.12c0.171-0.002 0.374-0.003 0.577-0.003 35.154 0 63.652 28.498 63.652 63.652 0 0.102 0 0.204-0.001 0.306v-0.016 618.759c-0.585 21.359-5.441 41.44-13.737 59.62l0.393-0.96zM426.555 853.433c0.16 11.706 9.607 21.153 21.298 21.313h127.799c11.706-0.16 21.153-9.607 21.313-21.298v-213.34c-0.16-11.706-9.607-21.153-21.298-21.313h-127.799c-11.706 0.16-21.153 9.607-21.313 21.298v0.015zM767.664 21.445h-511.808v256.048h511.808zM938.363 21.445h-85.157v277.361c0 0.086 0.001 0.187 0.001 0.288 0 35.207-28.541 63.748-63.748 63.748-0.068 0-0.135 0-0.203 0h-554.712c-0.086 0-0.187 0.001-0.289 0.001-35.207 0-63.748-28.541-63.748-63.748 0-0.101 0-0.203 0.001-0.304v0.016-277.361h-85.253v853.301h85.349v-277.265c0-0.086-0.001-0.187-0.001-0.289 0-35.207 28.541-63.748 63.748-63.748 0.101 0 0.203 0 0.304 0.001h384.008c0.086 0 0.187-0.001 0.289-0.001 35.207 0 63.748 28.541 63.748 63.748 0 0.101 0 0.203-0.001 0.304v-0.016 277.265c9.554-0.602 18.415-2.982 26.452-6.811l-0.434 0.186c8.667-3.327 16.12-7.942 22.533-13.692l-0.067 0.059 187.404-187.020c5.638-6.511 10.169-14.165 13.187-22.541l0.158-0.501c3.56-7.489 5.93-16.205 6.61-25.391l0.014-0.243v-597.349z" />
<glyph unicode="&#xe930;" glyph-name="viewform" d="M128 960h768v-1024h-768zM832 0v896h-640v-896zM768 704v-64h-256v64zM768 448v-64h-256v64zM768 192v-64h-256v64zM470.528 745.472l-118.528-118.272-86.528 86.272 44.8 44.8 41.728-41.472 73.472 73.472zM470.528 489.472l-118.528-118.272-86.528 86.272 44.8 44.8 41.728-41.472 73.472 73.728zM470.528 233.472l-118.528-118.272-86.528 86.272 44.8 44.8 41.728-41.472 73.472 73.728z" />
<glyph unicode="&#xe931;" glyph-name="settings" d="M971.343 555.487l-71.892 12.206c-8.404 26.926-18.202 50.008-29.948 71.888l1.064-2.168 42.368 59.239c7.373 10.192 11.792 22.941 11.792 36.722 0 17.495-7.123 33.326-18.627 44.752l-63.907 63.907c-11.387 11.485-27.171 18.596-44.615 18.596-0.041 0-0.083 0-0.124 0h0.006c-0.049 0-0.108 0-0.166 0-13.666 0-26.303-4.409-36.565-11.882l0.178 0.123-59.495-42.368c-20.503 11.149-44.446 21.24-69.431 28.959l-2.845 0.757-11.567 70.934c-5.147 30.17-31.099 52.849-62.348 52.849-0.031 0-0.061 0-0.092 0h-90.1c-0.026 0-0.056 0-0.087 0-31.249 0-57.201-22.679-62.295-52.475l-0.053-0.374-12.397-72.723c-26.811-8.492-49.821-18.436-71.587-30.366l2.059 1.034-58.664 42.368c-10.195 7.349-22.937 11.753-36.708 11.753-17.492 0-33.325-7.106-44.768-18.589l-63.906-63.906c-11.462-11.461-18.552-27.294-18.552-44.784 0-13.761 4.389-26.497 11.844-36.884l-0.129 0.19 42.752-60.134c-10.626-19.814-20.286-42.999-27.697-67.168l-0.74-2.807-71.253-11.758c-30.17-5.147-52.849-31.099-52.849-62.348 0-0.053 0-0.106 0-0.159v0.008-90.041c0-0.026 0-0.056 0-0.087 0-31.249 22.679-57.201 52.475-62.295l0.374-0.053 72.723-12.397c8.492-26.811 18.436-49.821 30.366-71.587l-1.034 2.059-42.113-58.6c-7.372-10.192-11.792-22.941-11.792-36.722 0-17.463 7.097-33.269 18.564-44.69l63.906-63.906c11.387-11.485 27.171-18.596 44.615-18.596 0.041 0 0.083 0 0.124 0h-0.006c0.049 0 0.108 0 0.166 0 13.666 0 26.303 4.409 36.565 11.882l-0.178-0.123 60.134 42.752c19.064-10.208 41.449-19.637 64.745-27.015l2.865-0.783 11.822-72.020c5.147-30.17 31.099-52.849 62.348-52.849 0.031 0 0.061 0 0.092 0h90.292c0.026 0 0.056 0 0.087 0 31.249 0 57.201 22.679 62.295 52.475l0.053 0.374 12.206 71.892c26.926 8.404 50.008 18.202 71.888 29.948l-2.168-1.064 59.239-42.368c10.154-7.351 22.859-11.759 36.593-11.759 0.076 0 0.152 0 0.227 0h-0.012c0.035 0 0.076 0 0.118 0 17.445 0 33.228 7.111 44.611 18.592l63.908 63.908c11.462 11.461 18.552 27.294 18.552 44.784 0 13.761-4.389 26.497-11.844 36.884l0.129-0.19-42.368 59.495c10.705 19.723 20.504 42.806 28.107 66.865l0.778 2.854 71.892 12.014c30.17 5.147 52.849 31.099 52.849 62.348 0 0.031 0 0.061 0 0.092v-0.005 90.105c0.003 0.22 0.004 0.48 0.004 0.74 0 31.099-22.738 56.888-52.497 61.648l-0.356 0.047zM966.422 402.948c0-0.019 0-0.040 0-0.062 0-2.777-2.037-5.079-4.698-5.493l-0.031-0.004-89.849-14.954c-11.293-1.905-20.24-10.189-23.088-20.952l-0.045-0.2c-8.882-33.945-21.619-63.716-38.054-91.008l0.862 1.543c-2.532-4.214-4.030-9.299-4.030-14.733 0-6.262 1.988-12.059 5.368-16.796l-0.060 0.088 52.849-74.448c0.621-0.911 0.991-2.036 0.991-3.247 0-1.569-0.622-2.993-1.632-4.039l-63.902-63.902c-0.994-1.064-2.406-1.727-3.972-1.727-0.041 0-0.083 0-0.124 0.001h0.006c0 0 0 0-0.001 0-1.208 0-2.32 0.409-3.207 1.095l0.012-0.009-74.257 52.849c-4.645 3.327-10.442 5.32-16.704 5.32-5.437 0-10.524-1.502-14.867-4.115l0.13 0.073c-25.75-15.573-55.521-28.31-87.077-36.655l-2.388-0.537c-11.007-2.818-19.328-11.803-21.131-22.97l-0.022-0.163-15.145-89.849c-0.418-2.693-2.72-4.729-5.497-4.729-0.022 0-0.044 0-0.066 0h-89.846c-0.019 0-0.040 0-0.062 0-2.777 0-5.079 2.037-5.493 4.698l-0.004 0.031-14.954 89.849c-1.905 11.293-10.189 20.24-20.952 23.088l-0.2 0.045c-33.294 8.818-62.454 21.104-89.362 36.824l1.685-0.909c-4.189 2.412-9.212 3.834-14.567 3.834-0.001 0-0.002 0-0.004 0v0c-0.040 0-0.087 0-0.133 0-6.217 0-11.964-2.013-16.625-5.424l0.079 0.055-74.896-53.296c-0.9-0.616-1.995-1.012-3.177-1.085l-0.018-0.001c-1.602 0.005-3.049 0.664-4.089 1.724l-63.905 63.905c-1.009 1.044-1.63 2.468-1.63 4.038 0 1.211 0.37 2.336 1.004 3.268l-0.013-0.020 52.785 73.937c3.384 4.712 5.412 10.597 5.412 16.956 0 5.536-1.537 10.713-4.207 15.127l0.073-0.131c-15.773 25.747-28.658 55.514-37.1 87.096l-0.539 2.37c-3.024 10.887-11.907 19.107-22.954 21.125l-0.179 0.027-90.488 14.826c-2.783 0.331-4.921 2.677-4.921 5.523 0 0.013 0 0.026 0 0.039v-0.002 90.041c0 0.019 0 0.040 0 0.062 0 2.777 2.037 5.079 4.698 5.493l0.031 0.004 89.466 14.954c11.403 1.938 20.43 10.322 23.28 21.206l0.045 0.201c8.623 34.062 21.158 63.983 37.422 91.434l-0.869-1.585c2.485 4.149 3.955 9.154 3.955 14.502 0 6.292-2.034 12.109-5.481 16.829l0.056-0.081-53.296 74.832c-0.621 0.911-0.991 2.036-0.991 3.247 0 1.569 0.622 2.993 1.632 4.039l63.902 63.902c0.994 1.064 2.406 1.727 3.972 1.727 0.041 0 0.083 0 0.124-0.001h-0.006c0 0 0 0 0.001 0 1.208 0 2.32-0.409 3.207-1.095l-0.012 0.009 73.809-52.593c4.712-3.384 10.597-5.412 16.956-5.412 5.536 0 10.713 1.537 15.127 4.207l-0.131-0.073c25.747 15.773 55.514 28.658 87.096 37.1l2.37 0.539c10.887 3.024 19.107 11.907 21.125 22.954l0.027 0.179 15.081 90.297c0.411 2.649 2.645 4.663 5.361 4.729h90.048c0.019 0 0.040 0 0.062 0 2.777 0 5.079-2.037 5.493-4.698l0.004-0.031 14.954-89.466c1.938-11.403 10.322-20.43 21.206-23.28l0.201-0.045c34.795-8.876 65.35-21.781 93.351-38.517l-1.585 0.878c4.214-2.532 9.299-4.030 14.733-4.030 6.262 0 12.059 1.988 16.796 5.368l-0.088-0.060 73.809 53.040c0.9 0.616 1.995 1.012 3.177 1.085l0.018 0.001c1.602-0.005 3.049-0.664 4.089-1.724l63.905-63.905c1.009-1.044 1.63-2.468 1.63-4.038 0-1.211-0.37-2.336-1.004-3.268l0.013 0.020-52.849-74.257c-3.327-4.645-5.32-10.442-5.32-16.704 0-5.437 1.502-10.524 4.115-14.867l-0.073 0.13c15.573-25.75 28.31-55.521 36.655-87.077l0.537-2.388c2.818-11.007 11.803-19.328 22.97-21.131l0.163-0.022 89.849-15.209c2.693-0.418 4.729-2.72 4.729-5.497 0-0.022 0-0.044 0-0.066v0.003-90.041zM512.128 669.044c-122.044 0-220.981-98.936-220.981-220.981s98.936-220.981 220.981-220.981c122.044 0 220.981 98.936 220.981 220.981v0c-0.073 122.015-98.966 220.908-220.974 220.981h-0.007zM512.128 284.853c-90.139 0-163.211 73.072-163.211 163.211s73.072 163.211 163.211 163.211c90.139 0 163.211-73.072 163.211-163.211v0c-0.073-90.11-73.101-163.138-163.204-163.211h-0.007z" />
<glyph unicode="&#xe932;" glyph-name="minusform" d="M512 938.213c0.603 0.003 1.317 0.004 2.032 0.004 45.617 0 89.748-6.366 131.552-18.257l-3.383 0.823c44.593-12.544 83.518-29.431 119.503-50.755l-2.288 1.255c37.647-22.285 70.164-47.645 99.084-76.599l0.005-0.005c28.959-28.925 54.319-61.441 75.359-96.828l1.245-2.261c20.069-33.698 36.956-72.622 48.653-113.732l0.847-3.483c11.068-38.421 17.434-82.551 17.434-128.169 0-0.714-0.002-1.428-0.005-2.141v0.109c0.003-0.603 0.004-1.317 0.004-2.032 0-45.617-6.366-89.748-18.257-131.552l0.823 3.383c-12.544-44.593-29.431-83.518-50.755-119.503l1.255 2.288c-22.305-37.682-47.695-70.228-76.684-99.169l-0.007-0.007c-28.925-28.959-61.441-54.319-96.828-75.359l-2.261-1.245c-33.698-20.069-72.622-36.956-113.732-48.653l-3.483-0.847c-38.421-11.068-82.551-17.434-128.169-17.434-0.714 0-1.428 0.002-2.141 0.005h0.109c-0.603-0.003-1.317-0.004-2.032-0.004-45.617 0-89.748 6.366-131.552 18.257l3.383-0.823c-44.593 12.544-83.518 29.431-119.503 50.755l2.288-1.255c-37.612 22.289-70.1 47.648-98.994 76.596l-0.008 0.008c-28.922 28.902-54.253 61.389-75.272 96.741l-1.245 2.26c-20.123 33.62-37.091 72.447-48.9 113.458l-0.862 3.496c-11.070 38.402-17.437 82.512-17.437 128.108 0 0.92 0.003 1.839 0.008 2.757l-0.001-0.142c-0.002 0.527-0.003 1.15-0.003 1.774 0 45.616 6.365 89.745 18.256 131.548l-0.823-3.383c12.632 44.598 29.604 83.517 51.014 119.486l-1.252-2.27c22.285 37.647 47.645 70.164 76.599 99.084l0.005 0.005c28.925 28.959 61.441 54.319 96.828 75.359l2.261 1.245c33.594 20.087 72.393 37.025 113.371 48.814l3.496 0.861c38.401 11.069 82.509 17.436 128.103 17.436 0.829 0 1.658-0.002 2.487-0.006l-0.128 0.001zM512 23.149c0.451-0.002 0.984-0.003 1.518-0.003 39.775 0 78.263 5.505 114.746 15.795l-2.971-0.716c38.638 10.754 72.393 25.39 103.545 43.941l-1.929-1.064c32.568 19.353 60.705 41.334 85.751 66.404l0.004 0.004c25.074 25.049 47.054 53.187 65.324 83.796l1.083 1.959c17.487 29.223 32.123 62.978 42.166 98.657l0.711 2.959c9.574 33.511 15.079 72 15.079 111.775 0 0.534-0.001 1.067-0.003 1.6v-0.082c0.002 0.451 0.003 0.984 0.003 1.518 0 39.775-5.505 78.263-15.795 114.746l0.716-2.971c-10.754 38.638-25.39 72.393-43.941 103.545l1.064-1.929c-19.353 32.568-41.334 60.705-66.404 85.751l-0.004 0.004c-25.049 25.074-53.187 47.054-83.796 65.324l-1.959 1.083c-29.223 17.487-62.978 32.123-98.657 42.166l-2.959 0.711c-33.511 9.574-72 15.079-111.775 15.079-0.534 0-1.067-0.001-1.6-0.003h0.082c-0.451 0.002-0.984 0.003-1.518 0.003-39.775 0-78.263-5.505-114.746-15.795l2.971 0.716c-38.638-10.754-72.393-25.39-103.545-43.941l1.929 1.064c-32.568-19.353-60.705-41.334-85.751-66.404l-0.004-0.004c-25.074-25.049-47.054-53.187-65.324-83.796l-1.083-1.959c-17.456-29.324-32.040-63.204-42.001-99.010l-0.702-2.954c-9.574-33.511-15.079-72-15.079-111.775 0-0.534 0.001-1.067 0.003-1.6v0.082c-0.002-0.451-0.003-0.984-0.003-1.518 0-39.775 5.505-78.263 15.795-114.746l-0.716 2.971c10.754-38.638 25.39-72.393 43.941-103.545l-1.064 1.929c19.353-32.568 41.334-60.705 66.404-85.751l0.004-0.004c25.049-25.074 53.187-47.054 83.796-65.324l1.959-1.083c29.223-17.487 62.978-32.123 98.657-42.166l2.959-0.711c33.141-9.357 71.202-14.736 110.518-14.736 0.914 0 1.828 0.003 2.741 0.009l-0.14-0.001zM217.872 480.681h588.255v-65.362h-588.255z" />
<glyph unicode="&#xe933;" glyph-name="plusform" d="M512 939.52c0.436 0.001 0.953 0.002 1.469 0.002 45.951 0 90.407-6.402 132.524-18.362l-3.413 0.829c44.642-12.478 83.634-29.421 119.623-50.876l-2.231 1.232c37.731-22.46 70.334-47.946 99.365-77.001l0.004-0.004c29.059-29.035 54.545-61.638 75.746-97.098l1.258-2.271c20.223-33.758 37.165-72.749 48.815-113.962l0.828-3.429c11.131-38.705 17.533-83.161 17.533-129.112 0-0.516-0.001-1.033-0.002-1.548v0.080c0.001-0.436 0.002-0.953 0.002-1.469 0-45.951-6.402-90.407-18.362-132.524l0.829 3.413c-12.478-44.642-29.421-83.634-50.876-119.623l1.232 2.231c-22.46-37.731-47.946-70.334-77.001-99.365l-0.004-0.004c-29.035-29.059-61.638-54.545-97.098-75.746l-2.271-1.258c-33.758-20.223-72.749-37.165-113.962-48.815l-3.429-0.828c-38.705-11.131-83.161-17.533-129.112-17.533-0.516 0-1.033 0.001-1.548 0.002h0.080c-0.436-0.001-0.953-0.002-1.469-0.002-45.951 0-90.407 6.402-132.524 18.362l3.413-0.829c-44.747 12.428-83.822 29.205-119.977 50.421l2.34-1.269c-37.869 22.271-70.564 47.691-99.612 76.756l-0.003 0.003c-29.081 29.137-54.505 61.941-75.514 97.654l-1.245 2.288c-19.972 33.647-36.821 72.517-48.539 113.55l-0.858 3.514c-11.133 38.673-17.535 83.093-17.535 129.008 0 0.725 0.002 1.451 0.005 2.175v-0.111c-0.001 0.436-0.002 0.953-0.002 1.469 0 45.951 6.402 90.407 18.362 132.524l-0.829-3.413c12.486 44.612 29.427 83.575 50.875 119.539l-1.232-2.229c22.46 37.731 47.946 70.334 77.001 99.365l0.004 0.004c29.035 29.059 61.638 54.545 97.098 75.746l2.271 1.258c33.758 20.223 72.749 37.165 113.962 48.815l3.429 0.828c38.79 11.183 83.346 17.614 129.404 17.614 0.413 0 0.826-0.001 1.239-0.002h-0.063zM512 17.92c0.54-0.002 1.179-0.004 1.818-0.004 40.17 0 79.034 5.595 115.854 16.047l-2.984-0.724c39.075 10.967 73.191 25.781 104.71 44.508l-1.983-1.091c33.017 19.556 61.539 41.794 86.917 67.174v0c25.381 25.378 47.618 53.9 66.080 84.93l1.095 1.987c17.636 29.536 32.45 63.653 42.682 99.696l0.736 3.031c9.626 33.663 15.161 72.327 15.161 112.283 0 0.788-0.002 1.576-0.006 2.363l0.001-0.122c0.002 0.54 0.004 1.179 0.004 1.818 0 40.17-5.595 79.034-16.047 115.854l0.724-2.984c-10.967 39.075-25.781 73.191-44.508 104.71l1.091-1.983c-19.556 33.017-41.794 61.539-67.174 86.917v0c-25.378 25.381-53.9 47.618-84.93 66.080l-1.987 1.095c-29.536 17.636-63.653 32.45-99.696 42.682l-3.031 0.736c-33.663 9.626-72.327 15.161-112.283 15.161-0.788 0-1.576-0.002-2.363-0.006l0.122 0.001c-0.454 0.002-0.99 0.003-1.527 0.003-40.277 0-79.24-5.624-116.147-16.13l2.986 0.727c-39.075-10.967-73.191-25.781-104.71-44.508l1.983 1.091c-33.017-19.556-61.539-41.794-86.917-67.174v0c-25.381-25.378-47.618-53.9-66.080-84.93l-1.095-1.987c-17.533-29.464-32.265-63.5-42.439-99.451l-0.733-3.031c-9.779-33.922-15.404-72.885-15.404-113.161 0-0.537 0.001-1.074 0.003-1.61v0.083c-0.002-0.454-0.003-0.99-0.003-1.527 0-40.277 5.624-79.24 16.13-116.147l-0.727 2.986c10.963-39.085 25.692-73.2 44.283-104.768l-1.111 2.040c19.487-33.105 41.733-61.687 67.168-87.074l0.006-0.006c25.394-25.441 53.976-47.687 85.099-66.090l1.982-1.084c29.479-17.439 63.539-32.14 99.49-42.344l3.074-0.746c33.836-9.728 72.699-15.323 112.87-15.323 0.639 0 1.278 0.001 1.917 0.004h-0.099zM542.72 479.212h215.040v-61.44h-215.040v-215.532h-61.44v215.532h-215.040v61.44h215.040v214.548h61.44z" />
<glyph unicode="&#xe934;" glyph-name="add-user" horiz-adv-x="1087" d="M886.884 179.178v100.741h-43.528v-100.741h-100.741v-43.464h100.741v-100.725h43.464v100.725h100.741v43.464zM865.551 378.877c-32.263 43.206-70.319 79.858-113.484 109.632l-1.612 1.051c-3.569 2.438-10.754 7.106-10.754 7.106l-17.366 11.264-12.093-16.809c-51.923-71.782-135.428-117.945-229.715-117.945s-177.792 46.163-229.147 117.119l-0.569 0.825-12.141 16.873-26.273-17.255c-128.851-87.457-212.397-233.268-212.397-398.593 0-0.064 0-0.128 0-0.193v0.010-69.848h690.245c40.87-52.457 104.050-85.876 175.035-85.876 122.231 0 221.319 99.088 221.319 221.319 0 122.153-98.961 221.192-221.084 221.319h-0.012zM43.432 65.579v26.384c0 0.065 0 0.141 0 0.217 0 146.839 72.469 276.752 183.592 355.926l1.337 0.905c60.246-73.069 150.779-119.293 252.108-119.293s191.862 46.224 251.663 118.737l0.446 0.557c31.269-22.261 58.397-47.3 82.056-75.359l0.538-0.655c-98.995-23.182-171.588-110.708-171.588-215.189 0-33.485 7.456-65.228 20.798-93.66l-0.57 1.351zM865.137-20.552c-98.29 0.009-177.966 79.691-177.966 177.982 0 98.297 79.685 177.982 177.982 177.982s177.982-79.685 177.982-177.982v0c-0.118-98.255-79.742-177.874-177.988-177.982h-0.010zM480.43 960c-131.602 0-238.287-106.685-238.287-238.287s106.685-238.287 238.287-238.287c131.602 0 238.287 106.685 238.287 238.287v0c-0.145 131.544-106.743 238.142-238.273 238.287h-0.014zM480.43 526.906c-107.598 0-194.823 87.225-194.823 194.823s87.225 194.823 194.823 194.823c107.598 0 194.823-87.225 194.823-194.823 0-0.006 0-0.011 0-0.017v0.001c-0.127-107.544-87.278-194.689-194.812-194.807h-0.011z" />
<glyph unicode="&#xe935;" glyph-name="publish" horiz-adv-x="958" d="M913.51 193.502l-81.51 80.998v-338.5h-64v338.5l-81.51-80.998-44.988 44.988 158.515 158.515 158.515-158.515zM64 0h640v-64h-704v1024h557.5l274.5-274.5v-237.5h-64v192h-256v256h-448zM576 704h146.5l-146.5 146.5z" />
<glyph unicode="&#xe936;" glyph-name="trashbin" horiz-adv-x="832" d="M831.982 767.982h-63.982v-735.974c0.002-0.208 0.003-0.453 0.003-0.698 0-13.293-2.754-25.943-7.724-37.411l0.235 0.609c-5.086-11.853-12.006-21.975-20.517-30.51l0.002 0.002c-8.533-8.51-18.655-15.43-29.883-20.275l-0.625-0.24c-10.858-4.734-23.508-7.488-36.801-7.488-0.246 0-0.491 0.001-0.736 0.003h-511.962c-0.208-0.002-0.453-0.003-0.698-0.003-13.293 0-25.943 2.754-37.411 7.724l0.609-0.235c-11.853 5.086-21.975 12.006-30.51 20.517l0.002-0.002c-8.51 8.533-15.43 18.655-20.275 29.883l-0.24 0.625c-4.734 10.858-7.488 23.508-7.488 36.801 0 0.246 0.001 0.491 0.003 0.736v-0.038 735.974h-63.982v63.982h256v63.982c-0.007 0.35-0.011 0.762-0.011 1.175 0 8.679 1.783 16.941 5.003 24.44l-0.154-0.403c3.439 7.856 8.066 14.565 13.736 20.233v0c5.668 5.669 12.377 10.297 19.816 13.572l0.417 0.164c7.118 3.086 15.407 4.882 24.116 4.882 0.373 0 0.745-0.003 1.116-0.010l-0.056 0.001h192.018c0.169 0.002 0.368 0.003 0.567 0.003 8.83 0 17.229-1.846 24.831-5.172l-0.399 0.156c7.856-3.439 14.565-8.066 20.233-13.736v0c5.669-5.668 10.297-12.377 13.572-19.816l0.164-0.417c3.171-7.204 5.017-15.603 5.017-24.433 0-0.199-0.001-0.399-0.003-0.598v0.030-64.018h256zM319.982 831.965h192.018v63.982h-192.018zM703.982 767.982h-575.982v-735.974c-0.001-0.079-0.001-0.172-0.001-0.265 0-8.735 3.641-16.619 9.488-22.217l0.011-0.011c5.609-5.858 13.493-9.5 22.228-9.5 0.093 0 0.186 0 0.279 0.001h511.986c0.079-0.001 0.172-0.001 0.265-0.001 8.735 0 16.619 3.641 22.217 9.488l0.011 0.011c5.858 5.609 9.5 13.493 9.5 22.228 0 0.093 0 0.186-0.001 0.279v-0.014zM319.982 127.982h-63.982v512h64.018zM447.982 127.982h-63.982v512h63.982zM575.982 127.982h-63.982v512h64.018z" />
<glyph unicode="&#xe937;" glyph-name="update" d="M512-0.012c0.492-0.002 1.075-0.003 1.657-0.003 52.268 0 102.505 8.696 149.343 24.719l-3.245-0.965c49.275 16.652 92.027 39.422 130.205 67.973l-1.206-0.863c39.298 29.455 72.843 63.794 100.546 102.591l0.955 1.407c27.699 38.642 50.12 83.444 64.895 131.591l0.865 3.277 60.99-19.006c-17.442-58.116-42.87-108.759-75.521-153.828l1.019 1.477c-32.946-45.644-71.347-84.681-114.864-117.258l-1.398-1.001c-42.128-31.557-90.794-57.611-143.165-75.724l-3.742-1.126c-49.382-17.274-106.31-27.251-165.57-27.251-0.621 0-1.242 0.001-1.863 0.003h0.096c-0.264 0-0.576-0.001-0.889-0.001-47.133 0-92.817 6.206-136.279 17.846l3.673-0.837c-46.652 12.307-87.474 29.152-125.344 50.601l2.589-1.349c-40.554 22.941-75.573 48.994-106.978 78.817l0.232-0.219c-32.219 30.532-60.303 64.924-83.653 102.56l-1.264 2.188v-121.506h-64.087v256h256v-64.012h-157.996c20.513-40.452 44.922-75.269 73.526-106.144l-0.272 0.298c28.392-30.697 60.51-57.326 95.795-79.356l1.96-1.141c33.296-20.835 71.693-38.365 112.376-50.623l3.386-0.877c37.841-11.586 81.338-18.258 126.393-18.258 0.293 0 0.585 0 0.878 0.001h-0.045zM1024 832v-256h-256v63.988h157.996c-20.52 40.412-44.928 75.196-73.524 106.042l0.27-0.295c-28.392 30.697-60.51 57.326-95.795 79.356l-1.96 1.141c-33.296 20.835-71.693 38.365-112.376 50.623l-3.386 0.877c-37.842 11.586-81.338 18.258-126.393 18.258-0.301 0-0.603 0-0.904-0.001h0.046c-0.492 0.002-1.075 0.003-1.657 0.003-52.268 0-102.505-8.696-149.343-24.719l3.245 0.965c-49.264-16.646-92.009-39.408-130.181-67.948l1.207 0.864c-39.293-29.428-72.837-63.734-100.548-102.495l-0.953-1.403c-27.699-38.642-50.12-83.444-64.895-131.591l-0.865-3.277-60.99 19.106c17.572 57.98 42.985 108.49 75.534 153.501l-1.032-1.499c32.904 45.768 71.312 84.891 114.872 117.513l1.39 0.996c42.129 31.521 90.796 57.542 143.163 75.626l3.744 1.124c49.382 17.274 106.31 27.251 165.57 27.251 0.621 0 1.242-0.001 1.863-0.003h-0.096c0.264 0 0.576 0.001 0.889 0.001 47.133 0 92.817-6.206 136.279-17.846l-3.673 0.837c46.652-12.307 87.474-29.152 125.344-50.601l-2.589 1.349c40.554-22.941 75.573-48.994 106.978-78.817l-0.232 0.219c32.219-30.532 60.303-64.924 83.653-102.56l1.264-2.188v121.506z" />
<glyph unicode="&#xe938;" glyph-name="upload" horiz-adv-x="1433" d="M1171.311 529.061c0 4.272 0.63 8.544 0.63 12.816 0 231.104-165.729 418.123-370.081 418.123-152.213-4.868-280.749-101.176-332.841-235.588l-0.859-2.519c-24.623 14.366-54.17 22.921-85.699 23.11h-0.055c-98.768-5.348-178.125-81.747-188.069-178.711l-0.071-0.85c-115.343-50.732-194.423-164.003-194.423-295.744 0-3.521 0.056-7.029 0.169-10.524l-0.013 0.51c0-178.58 128.298-323.545 286.359-323.545h327.957v284.293h-154.069l256.595 297.634 256.595-297.284h-154.069v-284.433h352.573c144.615 0 261.392 133.34 261.392 296.548s-117.408 295.813-262.023 296.163z" />
<glyph unicode="&#xe939;" glyph-name="announcement" horiz-adv-x="1636" d="M0 702.819q11.178 0 30.716-0.818t37.896-0.818q9.088 0 16.358 0c4.557 0.192 8.817 0.614 13.003 1.264l-0.643-0.082 1435.854 255.546c3.693 0.581 8.113 1.005 12.598 1.175l0.216 0.006q7.997 0 17.539 0 19.175 0 39.895-0.818t31.989-0.818v-919.219q-11.178 0-31.171 0t-39.168 0h-23.991c-0.458-0.011-0.997-0.017-1.537-0.017-5.412 0-10.684 0.602-15.752 1.743l0.477-0.090-609.42 109.052c-5.578-31.841-16.297-60.298-31.365-85.888l0.648 1.191c-15.215-26.109-33.976-48.287-55.96-66.753l-0.384-0.314c-21.548-17.997-46.547-32.825-73.716-43.283l-1.803-0.61c-25.869-10.127-55.822-15.997-87.145-15.997-0.385 0-0.77 0.001-1.155 0.003h0.059c-0.408-0.002-0.89-0.004-1.373-0.004-35.421 0-69.124 7.356-99.664 20.623l1.618-0.626c-31.772 13.453-58.916 31.857-81.808 54.545l0.019-0.019c-22.669 22.873-41.073 50.018-53.891 80.112l-0.635 1.677c-12.243 28.511-19.361 61.694-19.361 96.54 0 0.533 0.002 1.066 0.005 1.598v-0.082c0.059 16.123 1.81 31.803 5.085 46.916l-0.268-1.478-316.342 56.798q-6.543 0.818-13.995 1.181t-16.358 0q-17.539 0-35.533-0.818t-31.534-0.364zM664.582 38.236c0.075 0 0.163 0 0.252 0 19.074 0 37.323 3.534 54.128 9.982l-1.035-0.349c17.477 6.574 32.541 15.616 45.635 26.883l-0.197-0.166c13.196 11.412 24.344 24.731 33.13 39.611l0.403 0.738c8.643 14.716 15 31.896 18.054 50.194l0.121 0.879-301.529 53.617c-1.489-8.406-2.348-18.092-2.363-27.976v-0.014c-0.002-0.298-0.003-0.65-0.003-1.002 0-21.272 4.414-41.514 12.375-59.859l-0.376 0.973c8.11-18.922 19.145-35.084 32.721-48.715l-0.005 0.005c13.626-13.57 29.788-24.606 47.711-32.333l0.999-0.383c17.43-7.642 37.744-12.089 59.097-12.089 0.31 0 0.619 0.001 0.929 0.003h-0.048zM1533.637 855.31l-1431.31-254.455v-204.473c0.349 0.012 0.76 0.018 1.172 0.018 2.804 0 5.537-0.305 8.167-0.882l-0.251 0.046 1422.131-254.273z" />
<glyph unicode="&#xe93a;" glyph-name="month" horiz-adv-x="1009" d="M755.878 743.831c0.067 0 0.146 0 0.226 0 39.13 0 70.852 31.721 70.852 70.852 0 0 0 0 0 0v0 74.315c0 39.214-31.789 71.002-71.002 71.002s-71.002-31.789-71.002-71.002v-74.24c0-0.045 0-0.098 0-0.151 0-39.089 31.688-70.776 70.776-70.776 0.053 0 0.106 0 0.159 0h-0.008zM1008.414 837.12h-143.059v-36.141c0-59.714-48.408-108.122-108.122-108.122s-108.122 48.408-108.122 108.122v0 36.141h-288.226v-36.141c0-59.714-48.408-108.122-108.122-108.122s-108.122 48.408-108.122 108.122v0 36.141l-144.64 1.807v-903.078h1009.242zM937.487 7.981h-865.355v576.753h865.129zM251.181 743.831c0.045 0 0.098 0 0.151 0 39.13 0 70.852 31.721 70.852 70.852 0 0 0 0 0 0v0 74.315c0.024 0.689 0.038 1.499 0.038 2.312 0 39.214-31.789 71.002-71.002 71.002s-71.002-31.789-71.002-71.002c0-0.813 0.014-1.623 0.041-2.429l-0.003 0.117v-74.24c0-0.045 0-0.098 0-0.151 0-39.089 31.688-70.776 70.776-70.776 0.053 0 0.106 0 0.159 0h-0.008zM360.734 507.332h113.544v-100.292h-113.544v100.292zM544.452 507.332h113.694v-100.292h-113.694v100.292zM714.842 507.332h113.544v-100.292h-113.544v100.292zM360.734 340.856h113.544v-100.216h-113.544v100.216zM544.452 340.856h113.694v-100.216h-113.694v100.216zM714.842 340.856h113.544v-100.216h-113.544v100.216zM360.734 170.993h113.544v-100.216h-113.544v100.216zM180.254 340.856h113.468v-100.216h-113.468v100.216zM180.254 170.993h113.468v-100.216h-113.468v100.216zM544.452 170.993h113.694v-100.216h-113.694v100.216zM714.842 170.993h113.544v-100.216h-113.544v100.216z" />
<glyph unicode="&#xe93b;" glyph-name="week" d="M319.982 448h-127.965v127.965h127.965zM575.982 575.965h-127.965v-127.965h127.965zM831.982 575.965h-127.965v-127.965h128.035zM319.982 384.018h-127.965v-128.035h127.965zM575.982 384.018h-127.965v-128.035h127.965zM831.982 384.018h-127.965v-128.035h128.035zM319.982 192h-127.965v-127.965h127.965zM575.982 192h-127.965v-127.965h127.965zM256 767.982c35.336 0 63.982 28.646 63.982 63.982v0 64.053c0 35.336-28.646 63.982-63.982 63.982s-63.982-28.646-63.982-63.982v-63.982c0-0.021 0-0.046 0-0.071 0-35.336 28.646-63.982 63.982-63.982 0 0 0 0 0 0v0zM1024 831.965v-895.965h-1024v895.965h160.026c0-53.024 42.985-96.009 96.009-96.009s96.009 42.985 96.009 96.009v0h319.982c0-53.024 42.985-96.009 96.009-96.009s96.009 42.985 96.009 96.009v0zM960.018 639.947h-896.035v-640.035h896.035zM768 767.982c35.336 0 63.982 28.646 63.982 63.982v64.053c0 35.356-28.662 64.018-64.018 64.018s-64.018-28.662-64.018-64.018v0-63.982c0-0.021 0-0.046 0-0.071 0-35.336 28.646-63.982 63.982-63.982 0.025 0 0.050 0 0.075 0h-0.004z" />
<glyph unicode="&#xe93c;" glyph-name="notes" horiz-adv-x="774" d="M701.774 885.76h60.661v-938.63h-751.304v938.63h61.607v63.11h62.609v-63.11h126.219v63.11h62.609v-63.11h126.219v63.11h62.609v-63.11h126.219v63.11h62.553zM699.826 9.739v813.412h-626.087v-813.412zM574.609 697.934v-62.609h-375.652v62.609zM198.957 133.955v62.609h375.652v-62.609zM198.957 384.89v62.609h375.652v-62.609z" />
<glyph unicode="&#xe93d;" d="M575.982 384.018h-127.965v-128.035h127.965zM256 767.982c35.336 0 63.982 28.646 63.982 63.982v0 64.053c0 35.336-28.646 63.982-63.982 63.982s-63.982-28.646-63.982-63.982v-63.982c0-0.021 0-0.046 0-0.071 0-35.336 28.646-63.982 63.982-63.982 0 0 0 0 0 0v0zM1024 831.965v-895.965h-1024v895.965h160.026c0-53.024 42.985-96.009 96.009-96.009s96.009 42.985 96.009 96.009v0h319.982c0-53.024 42.985-96.009 96.009-96.009s96.009 42.985 96.009 96.009v0zM960.018 639.947h-896.035v-640.035h896.035zM768 767.982c35.336 0 63.982 28.646 63.982 63.982v64.053c0 35.356-28.662 64.018-64.018 64.018s-64.018-28.662-64.018-64.018v0-63.982c0-0.021 0-0.046 0-0.071 0-35.336 28.646-63.982 63.982-63.982 0.025 0 0.050 0 0.075 0h-0.004z" />
<glyph unicode="&#xe93e;" glyph-name="dashboard" d="M804.571 886.857v-219.429h-658.286v219.429zM731.429 740.571v73.143h-512v-73.143zM658.286 594.286v-219.429h-512v219.429zM585.143 448v73.143h-365.714v-73.143zM950.857 301.714v-219.429h-804.571v219.429zM877.714 155.429v73.143h-658.286v-73.143zM73.143 9.143h950.857v-73.143h-1024v1024h73.143z" />
<glyph unicode="&#xe93f;" glyph-name="sortascending" horiz-adv-x="2048" d="M1024 960l1024-1024h-2048z" />
<glyph unicode="&#xe940;" glyph-name="appoint" horiz-adv-x="992" d="M640 704c0-0.095 0-0.208 0-0.321 0-22.818-3.014-44.931-8.666-65.965l0.406 1.773c-6.015-22.721-14.137-42.581-24.437-61.063l0.68 1.33c-10.988-19.796-23.604-36.873-38.122-52.123l0.098 0.104c-14.697-15.586-31.288-29.138-49.471-40.359l-1.046-0.601c41.861-16.686 77.965-38.425 109.869-65.033l-0.642 0.521-40.96-49.015c-27.295 22.603-58.927 41.258-93.269 54.45l-2.305 0.778c-31.905 12.362-68.829 19.525-107.426 19.525-0.249 0-0.498 0-0.747-0.001h0.038c-0.296 0.001-0.646 0.002-0.997 0.002-29.898 0-58.818-4.188-86.205-12.010l2.21 0.54c-29.117-8.185-54.53-19.177-78.041-33.048l1.514 0.827c-24.596-14.515-45.836-31.061-64.713-49.967l-0.004-0.004c-18.91-18.881-35.457-40.12-49.162-63.242l-0.809-1.475c-13.045-21.997-24.038-47.41-31.666-74.239l-0.556-2.288c-7.325-25.249-11.538-54.252-11.538-84.239 0-0.313 0-0.625 0.001-0.938v0.049h-64.034c0 0.081 0 0.177 0 0.273 0 40.823 6.493 80.129 18.501 116.943l-0.752-2.664c12.645 39.546 29.809 73.943 51.368 105.064l-0.851-1.298c22.414 32.371 48.342 60.186 77.747 83.855l0.759 0.591c28.862 23.386 62.428 42.455 98.857 55.507l2.382 0.745c-18.912 12.27-35.319 25.965-49.924 41.383l-0.115 0.123c-14.272 15.008-26.792 31.9-37.096 50.206l-0.656 1.267c-9.597 16.998-17.694 36.675-23.275 57.384l-0.414 1.803c-5.247 19.223-8.261 41.295-8.261 64.071 0 0.227 0 0.454 0.001 0.681v-0.035c-0.003 0.46-0.005 1.004-0.005 1.548 0 35.471 7.359 69.222 20.634 99.812l-0.627-1.623c13.518 31.664 31.944 58.711 54.625 81.522l-0.012-0.012c22.799 22.67 49.846 41.096 79.839 53.975l1.671 0.638c29.139 12.817 63.109 20.276 98.821 20.276 0.274 0 0.548 0 0.822-0.001h-0.042c0.46 0.003 1.004 0.005 1.548 0.005 35.471 0 69.222-7.359 99.812-20.634l-1.623 0.627c31.664-13.518 58.711-31.944 81.522-54.625l-0.012 0.012c22.67-22.799 41.096-49.846 53.975-79.839l0.638-1.671c12.733-29.054 20.142-62.915 20.142-98.507 0-0.481-0.001-0.961-0.004-1.441v0.074zM384 511.966c0.303-0.002 0.662-0.003 1.022-0.003 26.541 0 51.792 5.526 74.664 15.49l-1.207-0.468c23.86 10.126 44.247 23.948 61.457 40.976l-0.017-0.016c16.96 17.092 30.772 37.336 40.475 59.772l0.485 1.259c9.497 21.631 15.024 46.846 15.024 73.351 0 0.493-0.002 0.985-0.006 1.476v-0.075c0.002 0.303 0.003 0.662 0.003 1.022 0 26.541-5.526 51.792-15.49 74.664l0.468-1.207c-10.126 23.86-23.948 44.247-40.976 61.457l0.016-0.017c-17.192 17.011-37.58 30.834-60.176 40.48l-1.264 0.48c-21.665 9.496-46.916 15.021-73.457 15.021-0.359 0-0.718-0.001-1.077-0.003h0.055c-0.416 0.003-0.908 0.005-1.401 0.005-26.505 0-51.72-5.527-74.554-15.491l1.202 0.468c-23.694-10.188-43.938-24-61.043-40.972l0.012 0.012c-17.011-17.192-30.834-37.58-40.48-60.176l-0.48-1.264c-9.496-21.665-15.021-46.916-15.021-73.457 0-0.359 0.001-0.718 0.003-1.077v0.055c-0.003-0.416-0.005-0.908-0.005-1.401 0-26.505 5.527-51.72 15.491-74.554l-0.468 1.202c10.188-23.694 24-43.938 40.972-61.043l-0.012 0.012c17.092-16.96 37.336-30.772 59.772-40.475l1.259-0.485c21.631-9.497 46.846-15.024 73.351-15.024 0.493 0 0.985 0.002 1.476 0.006h-0.075zM991.983 287.983c0-0.077 0-0.169 0-0.26 0-17.987-3.024-35.267-8.592-51.36l0.332 1.103c-5.937-17.391-13.992-32.477-24.066-45.967l0.309 0.433v-255.932l-127.932 63.966-128-63.966v256c-9.765 13.057-17.82 28.142-23.41 44.376l-0.347 1.158c-5.236 14.99-8.26 32.27-8.26 50.257 0 0.091 0 0.183 0 0.274v-0.014c-0.002 0.303-0.003 0.662-0.003 1.021 0 22.031 4.597 42.987 12.885 61.963l-0.388-0.998c8.491 19.697 20 36.523 34.139 50.728l-0.006-0.006c14.29 14.235 31.2 25.853 49.942 34.063l1.053 0.411c18.092 8.069 39.204 12.768 61.413 12.768 0.298 0 0.595-0.001 0.892-0.003h-0.046c0.28 0.002 0.611 0.003 0.942 0.003 22.084 0 43.069-4.7 62.012-13.154l-0.967 0.386c19.681-8.674 36.493-20.283 50.726-34.478l-0.004 0.004c14.191-14.229 25.8-31.042 34.058-49.67l0.416-1.052c8.153-18.058 12.904-39.151 12.904-61.352 0-0.247-0.001-0.494-0.002-0.74v0.038zM832.034 383.966c-0.183 0.001-0.399 0.002-0.616 0.002-13.317 0-25.988-2.763-37.472-7.747l0.609 0.235c-11.854-5.074-21.979-11.983-30.519-20.484l0.004 0.004c-8.497-8.536-15.406-18.661-20.24-29.89l-0.24-0.626c-4.748-10.875-7.511-23.546-7.511-36.862 0-0.217 0.001-0.433 0.002-0.649v0.033c-0.001-0.183-0.002-0.399-0.002-0.616 0-13.317 2.763-25.988 7.747-37.472l-0.235 0.609c5.074-11.854 11.983-21.979 20.484-30.519l-0.004 0.004c8.536-8.497 18.661-15.406 29.89-20.24l0.626-0.24c10.875-4.748 23.546-7.511 36.862-7.511 0.217 0 0.433 0.001 0.649 0.002h-0.033c0.183-0.001 0.399-0.002 0.616-0.002 13.317 0 25.988 2.763 37.472 7.747l-0.609-0.235c11.854 5.074 21.979 11.983 30.519 20.484l-0.004-0.004c8.497 8.536 15.406 18.661 20.24 29.89l0.24 0.626c4.748 10.875 7.511 23.546 7.511 36.862 0 0.217-0.001 0.433-0.002 0.649v-0.033c0.001 0.183 0.002 0.399 0.002 0.616 0 13.317-2.763 25.988-7.747 37.472l0.235-0.609c-5.074 11.854-11.983 21.979-20.484 30.519l0.004-0.004c-8.536 8.497-18.661 15.406-29.89 20.24l-0.626 0.24c-10.875 4.748-23.546 7.511-36.862 7.511-0.217 0-0.433-0.001-0.649-0.002h0.033zM832.034 71.441q15.974-8.533 32.017-16.247t32.017-15.77v102.059c-18.635-8.624-40.444-13.654-63.428-13.654-0.189 0-0.378 0-0.567 0.001h0.029c-0.16-0.001-0.349-0.001-0.538-0.001-22.984 0-44.792 5.030-64.385 14.049l0.958-0.395v-101.99q15.974 7.987 32.017 15.77t31.881 16.247z" />
<glyph unicode="&#xe941;" glyph-name="download" horiz-adv-x="653" d="M49.467-44.308v61.519h553.826v-61.519zM624.955 426.378l-298.575-300.977-298.575 300.977 43.323 43.323 224.492-225.95v696.556h61.519v-696.635l224.492 225.95z" />
<glyph unicode="&#xe942;" glyph-name="give-money" horiz-adv-x="1173" d="M877.452 673.837c-35.074 14.070-45.201 22.567-45.201 37.86 0 12.303 9.312 26.645 35.549 26.645 14.945-0.089 29.074-3.488 41.721-9.5l-0.597 0.256c1.748-0.967 3.829-1.544 6.044-1.563h0.006c0.003 0 0.006 0 0.010 0 5.168 0 9.587 3.204 11.38 7.734l0.029 0.083 6.389 16.313c0.45 1.1 0.711 2.377 0.711 3.714 0 4.143-2.505 7.702-6.083 9.243l-0.065 0.025c-12.001 4.482-26.285 8.329-41.016 10.87l-1.467 0.209c-1.142 0.073-2.040 1.017-2.040 2.171 0 0.025 0 0.051 0.001 0.076v-0.004 23.586c-0.114 7.157-5.943 12.915-13.117 12.915-0.048 0-0.097 0-0.145-0.001h-11.412c-0.041 0-0.089 0.001-0.138 0.001-7.174 0-13.003-5.758-13.117-12.905v-25.161c0-1.903-2.039-2.719-2.787-2.923-32.388-5.581-56.784-33.25-57.232-66.701v-0.047c0-40.783 33.51-58.932 69.739-72.662 28.956-11.351 40.783-22.907 40.783-39.764 0-18.42-16.721-31.267-40.783-31.267-17.868 1.634-34.283 6.301-49.257 13.491l0.861-0.373c-1.628 0.807-3.544 1.282-5.571 1.291h-0.003c-0.025 0-0.055 0-0.085 0-5.295 0-9.813-3.327-11.578-8.004l-0.028-0.085-6.050-16.449c-0.47-1.16-0.743-2.505-0.743-3.914 0-4.264 2.501-7.944 6.116-9.653l0.065-0.028c14.861-6.392 32.158-11.375 50.19-14.124l1.197-0.15c0.408 0 2.379-0.748 2.379-2.583v-24.742c0.114-7.157 5.943-12.915 13.117-12.915 0.048 0 0.097 0 0.145 0.001h11.82c0.041 0 0.089-0.001 0.138-0.001 7.174 0 13.003 5.758 13.117 12.905v26.52c-0.011 0.086-0.017 0.185-0.017 0.285 0 1.262 0.955 2.3 2.181 2.433l0.011 0.001c34.227 5.701 60.036 34.974 60.291 70.324v0.027c0 35.413-19.44 58.32-65.457 76.537zM862.702 960c-171.295 0-310.157-138.862-310.157-310.157s138.862-310.157 310.157-310.157c171.295 0 310.157 138.862 310.157 310.157v0c0 171.295-138.862 310.157-310.157 310.157v0zM862.702 411.601c-131.578 0-238.242 106.665-238.242 238.242s106.665 238.242 238.242 238.242c131.578 0 238.242-106.665 238.242-238.242v0c0-131.578-106.665-238.242-238.242-238.242v0zM1109.985 189.196c-71.421-39.336-154.458-68.735-242.442-83.571l-4.637-0.646c-80.479-12.643-231.853 17.809-231.853 53.766 0 13.594 132.818-33.578 213.093-12.167 61.583 16.449 52.882 74.022 19.372 81.567-87.322 32.103-192.092 60.389-299.944 79.799l-11.844 1.768c-67.614-3.568-130.514-11.16-192.038-22.661l8.921 1.386c-16.041-2.583-26.169-2.311-27.189-17.673-4.69-71.439-13.594-217.511-18.896-293.979 0-1.631 2.107-23.314 20.052-8.021 17.007 18.199 41.154 29.541 67.95 29.541 1.586 0 3.162-0.040 4.729-0.118l-0.22 0.009c39.9-9.040 384.858-72.254 432.439-61.175 113.731 44.063 212.024 99.82 300.6 167.63l-2.882-2.118c57.097 55.329 12.371 113.377-35.21 86.664zM245.991 291.494l-180.738 8.904c-0.129 0.002-0.282 0.003-0.435 0.003-14.712 0-27.145-9.758-31.18-23.155l-0.060-0.231-32.831-298.33c-0.563-1.749-0.887-3.76-0.887-5.848 0-10.887 8.825-19.712 19.712-19.712 0.097 0 0.194 0.001 0.29 0.002h200.231c0.192-0.005 0.417-0.008 0.644-0.008 13.905 0 25.322 10.651 26.538 24.239l0.007 0.102 22.023 287.454c0.048 0.58 0.076 1.255 0.076 1.937 0 13.176-10.327 23.939-23.328 24.638l-0.062 0.003zM139.615-7.583c-27.592 0-49.96 22.368-49.96 49.96s22.368 49.96 49.96 49.96c27.592 0 49.96-22.368 49.96-49.96v0c-0.154-27.475-22.462-49.688-49.959-49.688 0 0 0 0-0.001 0v0z" />
</font>
</defs>
</svg>
